<?xml version="1.0" encoding="utf-8" ?>
<svg baseProfile="full" height="168" version="1.1" width="1400" xmlns="http://www.w3.org/2000/svg" xmlns:ev="http://www.w3.org/2001/xml-events" xmlns:xlink="http://www.w3.org/1999/xlink"><defs /><rect fill="white" height="168" width="1400" x="0" y="0" /><rect fill="#edf2f7" height="80" width="40.448717948717956" x="275.8397435897436" y="10" /><rect fill="#e2e8f0" height="80" width="40.4487179487179" x="316.28846153846155" y="10" /><rect fill="#edf2f7" height="80" width="40.448717948717956" x="356.73717948717945" y="10" /><rect fill="#e2e8f0" height="80" width="40.448717948717956" x="397.1858974358974" y="10" /><rect fill="#edf2f7" height="80" width="40.448717948717956" x="437.63461538461536" y="10" /><rect fill="#e2e8f0" height="80" width="40.448717948717956" x="478.0833333333333" y="10" /><rect fill="#edf2f7" height="80" width="40.44871794871801" x="518.5320512820513" y="10" /><rect fill="#e2e8f0" height="80" width="40.448717948717785" x="558.9807692307693" y="10" /><rect fill="#edf2f7" height="80" width="40.4487179487179" x="882.5705128205128" y="10" /><rect fill="#e2e8f0" height="80" width="40.4487179487179" x="923.0192307692307" y="10" /><rect fill="#edf2f7" height="80" width="40.44871794871801" x="963.4679487179486" y="10" /><rect fill="#e2e8f0" height="80" width="40.4487179487179" x="1003.9166666666666" y="10" /><rect fill="#edf2f7" height="80" width="40.44871794871801" x="1044.3653846153845" y="10" /><rect fill="#e2e8f0" height="80" width="40.448717948717785" x="1084.8141025641025" y="10" /><rect fill="#edf2f7" height="80" width="40.44871794871801" x="1125.2628205128203" y="10" /><rect fill="#e2e8f0" height="80" width="40.44871794871801" x="1165.7115384615383" y="10" /><text font-family="monospace" font-size="12px" x="10" y="32.0">uart0.tx</text><polyline fill="none" points="110.0,18.0 110.0,18.0 134.26923076923077,18.0 134.26923076923077,18.0 275.8397435897436,18.0 275.8397435897436,18.0" stroke="#1a202c" stroke-width="1.5" /><polyline fill="none" points="275.8397435897436,18.0 275.8397435897436,42.0 279.88461538461536,42.0 279.88461538461536,18.0 283.9294871794872,18.0 283.9294871794872,42.0 312.2435897435897,42.0 312.2435897435897,18.0 316.28846153846155,18.0 316.28846153846155,42.0 320.3333333333333,42.0 320.3333333333333,18.0 328.4230769230769,18.0 328.4230769230769,42.0 352.6923076923077,42.0 352.6923076923077,18.0 356.73717948717945,18.0 356.73717948717945,42.0 393.14102564102564,42.0 393.14102564102564,18.0 397.1858974358974,18.0 397.1858974358974,42.0 433.5897435897436,42.0 433.5897435897436,18.0 437.63461538461536,18.0 437.63461538461536,42.0 474.0384615384615,42.0 474.0384615384615,18.0 478.0833333333333,18.0 478.0833333333333,42.0 486.1730769230769,42.0 486.1730769230769,18.0 490.2179487179487,18.0 490.2179487179487,42.0 494.2628205128205,42.0 494.2628205128205,18.0 498.30769230769226,18.0 498.30769230769226,42.0 514.4871794871794,42.0 514.4871794871794,18.0 518.5320512820513,18.0 518.5320512820513,42.0 522.5769230769231,42.0 522.5769230769231,18.0 526.6217948717949,18.0 526.6217948717949,42.0 530.6666666666666,42.0 530.6666666666666,18.0 534.7115384615385,18.0 534.7115384615385,42.0 546.8461538461538,42.0 546.8461538461538,18.0 558.9807692307693,18.0 558.9807692307693,42.0 563.025641025641,42.0 563.025641025641,18.0 567.0705128205128,18.0 567.0705128205128,42.0 571.1153846153845,42.0 571.1153846153845,18.0 579.2051282051282,18.0 579.2051282051282,42.0 587.2948717948718,42.0 587.2948717948718,18.0 599.4294871794871,18.0 599.4294871794871,18.0" stroke="#1a365d" stroke-width="1.5" /><polyline fill="none" points="599.4294871794871,18.0 599.4294871794871,18.0 882.5705128205128,18.0 882.5705128205128,18.0" stroke="#1a202c" stroke-width="1.5" /><polyline fill="none" points="882.5705128205128,18.0 882.5705128205128,42.0 886.6153846153845,42.0 886.6153846153845,18.0 890.6602564102564,18.0 890.6602564102564,42.0 918.9743589743589,42.0 918.9743589743589,18.0 923.0192307692307,18.0 923.0192307692307,42.0 931.1089743589743,42.0 931.1089743589743,18.0 939.1987179487179,18.0 939.1987179487179,42.0 959.4230769230769,42.0 959.4230769230769,18.0 963.4679487179486,18.0 963.4679487179486,42.0 999.8717948717948,42.0 999.8717948717948,18.0 1003.9166666666666,18.0 1003.9166666666666,42.0 1024.1410256410256,42.0 1024.1410256410256,18.0 1028.1858974358975,18.0 1028.1858974358975,42.0 1040.3205128205127,42.0 1040.3205128205127,18.0 1044.3653846153845,18.0 1044.3653846153845,42.0 1052.4551282051282,42.0 1052.4551282051282,18.0 1056.5,18.0 1056.5,42.0 1064.5897435897436,42.0 1064.5897435897436,18.0 1068.6346153846152,18.0 1068.6346153846152,42.0 1080.7692307692307,42.0 1080.7692307692307,18.0 1084.8141025641025,18.0 1084.8141025641025,42.0 1096.9487179487178,42.0 1096.9487179487178,18.0 1100.9935897435898,18.0 1100.9935897435898,42.0 1105.0384615384614,42.0 1105.0384615384614,18.0 1113.128205128205,18.0 1113.128205128205,42.0 1121.2179487179487,42.0 1121.2179487179487,18.0 1125.2628205128203,18.0 1125.2628205128203,42.0 1129.3076923076924,42.0 1129.3076923076924,18.0 1133.352564102564,18.0 1133.352564102564,42.0 1137.3974358974358,42.0 1137.3974358974358,18.0 1141.4423076923076,18.0 1141.4423076923076,42.0 1157.6217948717947,42.0 1157.6217948717947,18.0 1165.7115384615383,18.0 1165.7115384615383,42.0 1181.8910256410256,42.0 1181.8910256410256,18.0 1198.0705128205127,18.0 1198.0705128205127,42.0 1202.1153846153845,42.0 1202.1153846153845,18.0 1206.1602564102564,18.0 1206.1602564102564,18.0" stroke="#1a365d" stroke-width="1.5" /><polyline fill="none" points="1206.1602564102564,18.0 1206.1602564102564,18.0 1372.0,18.0" stroke="#1a202c" stroke-width="1.5" /><text font-family="monospace" font-size="12px" x="10" y="72.0">uart0.rx</text><polyline fill="none" points="110.0,58.0 134.26923076923077,58.0 134.26923076923077,58.0 1372.0,58.0" stroke="#1a202c" stroke-width="1.5" /><text fill="#6b46c1" font-family="monospace" font-size="10px" x="10" y="105.6">bitorder</text><rect fill="#6b46c1" fill-opacity="0.25" height="20" stroke="#6b46c1" stroke-width="0.5" width="323.5897435897435" x="275.8397435897436" y="92" /><text fill="#6b46c1" font-family="monospace" font-size="9px" x="277.8397435897436" y="106.8">lsb</text><rect fill="#6b46c1" fill-opacity="0.25" height="20" stroke="#6b46c1" stroke-width="0.5" width="323.58974358974353" x="882.5705128205128" y="92" /><text fill="#6b46c1" font-family="monospace" font-size="9px" x="884.5705128205128" y="106.8">lsb</text><text fill="#dd6b20" font-family="monospace" font-size="10px" x="10" y="129.6">field</text><rect fill="#dd6b20" fill-opacity="0.25" height="20" stroke="#dd6b20" stroke-width="0.5" width="40.448717948717956" x="275.8397435897436" y="116" /><text fill="#dd6b20" font-family="monospace" font-size="9px" x="277.8397435897436" y="130.8">SLAVE=1</text><rect fill="#dd6b20" fill-opacity="0.6" height="20" stroke="#dd6b20" stroke-width="0.5" width="40.4487179487179" x="316.28846153846155" y="116" /><rect fill="#2b6cb0" fill-opacity="0.6" height="20" stroke="#2b6cb0" stroke-width="0.5" width="40.448717948717956" x="356.73717948717945" y="116" /><rect fill="#2b6cb0" fill-opacity="0.6" height="20" stroke="#2b6cb0" stroke-width="0.5" width="40.448717948717956" x="397.1858974358974" y="116" /><rect fill="#d69e2e" fill-opacity="0.6" height="20" stroke="#d69e2e" stroke-width="0.5" width="40.448717948717956" x="437.63461538461536" y="116" /><rect fill="#d69e2e" fill-opacity="0.6" height="20" stroke="#d69e2e" stroke-width="0.5" width="40.448717948717956" x="478.0833333333333" y="116" /><rect fill="#805ad5" fill-opacity="0.6" height="20" stroke="#805ad5" stroke-width="0.5" width="40.44871794871801" x="518.5320512820513" y="116" /><rect fill="#805ad5" fill-opacity="0.6" height="20" stroke="#805ad5" stroke-width="0.5" width="40.448717948717785" x="558.9807692307693" y="116" /><rect fill="#dd6b20" fill-opacity="0.25" height="20" stroke="#dd6b20" stroke-width="0.5" width="40.4487179487179" x="882.5705128205128" y="116" /><text fill="#dd6b20" font-family="monospace" font-size="9px" x="884.5705128205128" y="130.8">SLAVE=1</text><rect fill="#319795" fill-opacity="0.6" height="20" stroke="#319795" stroke-width="0.5" width="40.4487179487179" x="923.0192307692307" y="116" /><rect fill="#38a169" fill-opacity="0.6" height="20" stroke="#38a169" stroke-width="0.5" width="40.44871794871801" x="963.4679487179486" y="116" /><rect fill="#38a169" fill-opacity="0.6" height="20" stroke="#38a169" stroke-width="0.5" width="40.4487179487179" x="1003.9166666666666" y="116" /><rect fill="#b83280" fill-opacity="0.6" height="20" stroke="#b83280" stroke-width="0.5" width="40.44871794871801" x="1044.3653846153845" y="116" /><rect fill="#b83280" fill-opacity="0.6" height="20" stroke="#b83280" stroke-width="0.5" width="40.448717948717785" x="1084.8141025641025" y="116" /><rect fill="#c53030" fill-opacity="0.6" height="20" stroke="#c53030" stroke-width="0.5" width="40.44871794871801" x="1125.2628205128203" y="116" /><rect fill="#c53030" fill-opacity="0.6" height="20" stroke="#c53030" stroke-width="0.5" width="40.44871794871801" x="1165.7115384615383" y="116" /><rect fill="#2b6cb0" height="10" width="10" x="10" y="142" /><text font-family="monospace" font-size="10px" x="24" y="151">ADDR=0x0000</text><rect fill="#38a169" height="10" width="10" x="106" y="142" /><text font-family="monospace" font-size="10px" x="120" y="151">ADDR=0x0010</text><rect fill="#d69e2e" height="10" width="10" x="202" y="142" /><text font-family="monospace" font-size="10px" x="216" y="151">COUNT=10</text><rect fill="#c53030" height="10" width="10" x="280" y="142" /><text font-family="monospace" font-size="10px" x="294" y="151">CRC=0x7885</text><rect fill="#805ad5" height="10" width="10" x="370" y="142" /><text font-family="monospace" font-size="10px" x="384" y="151">CRC=0xCDC5</text><rect fill="#dd6b20" height="10" width="10" x="460" y="142" /><text font-family="monospace" font-size="10px" x="474" y="151">FN=READ_HOLDING</text><rect fill="#319795" height="10" width="10" x="580" y="142" /><text font-family="monospace" font-size="10px" x="594" y="151">FN=WRITE_SINGLE</text><rect fill="#b83280" height="10" width="10" x="700" y="142" /><text font-family="monospace" font-size="10px" x="714" y="151">VALUE=0x1234</text><rect fill="#1a365d" height="10" width="10" x="802" y="142" /><text font-family="monospace" font-size="10px" x="816" y="151">sender</text></svg>