<?xml version="1.0" encoding="utf-8" ?>
<svg baseProfile="full" height="1192" version="1.1" width="1400" xmlns="http://www.w3.org/2000/svg" xmlns:ev="http://www.w3.org/2001/xml-events" xmlns:xlink="http://www.w3.org/1999/xlink"><defs /><rect fill="white" height="1192" width="1400" x="0" y="0" /><text fill="#4a5568" font-family="monospace" font-size="10px" x="10" y="21">chunk 1/5 — samples 0-971  (0.0-97.2 µs)</text><rect fill="#edf2f7" height="160" width="96.0" x="214.39999999999998" y="26" /><rect fill="#e2e8f0" height="160" width="96.0" x="310.4" y="26" /><rect fill="#edf2f7" height="160" width="96.0" x="406.4" y="26" /><rect fill="#e2e8f0" height="160" width="96.0" x="502.4" y="26" /><rect fill="#edf2f7" height="160" width="96.0" x="598.4" y="26" /><rect fill="#e2e8f0" height="160" width="96.0" x="694.4" y="26" /><rect fill="#edf2f7" height="160" width="96.0" x="790.4" y="26" /><rect fill="#e2e8f0" height="160" width="96.0" x="886.4" y="26" /><rect fill="#edf2f7" height="160" width="96.00000000000011" x="988.4" y="26" /><rect fill="#e2e8f0" height="160" width="95.99999999999977" x="1084.4" y="26" /><rect fill="#edf2f7" height="160" width="96.0" x="1180.3999999999999" y="26" /><text font-family="monospace" font-size="12px" x="10" y="48.0">spi0.sclk</text><polyline fill="none" points="110.0,58.0 208.39999999999998,58.0 208.39999999999998,58.0 220.39999999999998,58.0 220.39999999999998,34.0 226.39999999999998,34.0 226.39999999999998,58.0 232.39999999999998,58.0 232.39999999999998,34.0 238.4,34.0 238.4,58.0 244.4,58.0 244.4,34.0 250.4,34.0 250.4,58.0 256.4,58.0 256.4,34.0 262.4,34.0 262.4,58.0 268.4,58.0 268.4,34.0 274.4,34.0 274.4,58.0 280.4,58.0 280.4,34.0 286.4,34.0 286.4,58.0 292.4,58.0 292.4,34.0 298.4,34.0 298.4,58.0 304.4,58.0 304.4,34.0 310.4,34.0 310.4,58.0 316.4,58.0 316.4,34.0 322.4,34.0 322.4,58.0 328.4,58.0 328.4,34.0 334.4,34.0 334.4,58.0 340.4,58.0 340.4,34.0 346.4,34.0 346.4,58.0 352.4,58.0 352.4,34.0 358.4,34.0 358.4,58.0 364.4,58.0 364.4,34.0 370.4,34.0 370.4,58.0 376.4,58.0 376.4,34.0 382.4,34.0 382.4,58.0 388.4,58.0 388.4,34.0 394.4,34.0 394.4,58.0 400.4,58.0 400.4,34.0 406.4,34.0 406.4,58.0 412.4,58.0 412.4,34.0 418.4,34.0 418.4,58.0 424.4,58.0 424.4,34.0 430.4,34.0 430.4,58.0 436.4,58.0 436.4,34.0 442.4,34.0 442.4,58.0 448.4,58.0 448.4,34.0 454.4,34.0 454.4,58.0 460.4,58.0 460.4,34.0 466.4,34.0 466.4,58.0 472.4,58.0 472.4,34.0 478.4,34.0 478.4,58.0 484.4,58.0 484.4,34.0 490.4,34.0 490.4,58.0 496.4,58.0 496.4,34.0 502.4,34.0 502.4,58.0 508.4,58.0 508.4,34.0 514.4,34.0 514.4,58.0 520.4,58.0 520.4,34.0 526.4,34.0 526.4,58.0 532.4,58.0 532.4,34.0 538.4,34.0 538.4,58.0 544.4,58.0 544.4,34.0 550.4,34.0 550.4,58.0 556.4,58.0 556.4,34.0 562.4,34.0 562.4,58.0 568.4,58.0 568.4,34.0 574.4,34.0 574.4,58.0 580.4,58.0 580.4,34.0 586.4,34.0 586.4,58.0 592.4,58.0 592.4,34.0 598.4,34.0 598.4,58.0 604.4,58.0 604.4,34.0 610.4,34.0 610.4,58.0 616.4,58.0 616.4,34.0 622.4,34.0 622.4,58.0 628.4,58.0 628.4,34.0 634.4,34.0 634.4,58.0 640.4,58.0 640.4,34.0 646.4,34.0 646.4,58.0 652.4,58.0 652.4,34.0 658.4,34.0 658.4,58.0 664.4,58.0 664.4,34.0 670.4,34.0 670.4,58.0 676.4,58.0 676.4,34.0 682.4,34.0 682.4,58.0 688.4,58.0 688.4,34.0 694.4,34.0 694.4,58.0 700.4,58.0 700.4,34.0 706.4,34.0 706.4,58.0 712.4,58.0 712.4,34.0 718.4,34.0 718.4,58.0 724.4,58.0 724.4,34.0 730.4,34.0 730.4,58.0 736.4,58.0 736.4,34.0 742.4,34.0 742.4,58.0 748.4,58.0 748.4,34.0 754.4,34.0 754.4,58.0 760.4,58.0 760.4,34.0 766.4,34.0 766.4,58.0 772.4,58.0 772.4,34.0 778.4,34.0 778.4,58.0 784.4,58.0 784.4,34.0 790.4,34.0 790.4,58.0 796.4,58.0 796.4,34.0 802.4,34.0 802.4,58.0 808.4,58.0 808.4,34.0 814.4,34.0 814.4,58.0 820.4,58.0 820.4,34.0 826.4,34.0 826.4,58.0 832.4,58.0 832.4,34.0 838.4,34.0 838.4,58.0 844.4,58.0 844.4,34.0 850.4,34.0 850.4,58.0 856.4,58.0 856.4,34.0 862.4,34.0 862.4,58.0 868.4,58.0 868.4,34.0 874.4,34.0 874.4,58.0 880.4,58.0 880.4,34.0 886.4,34.0 886.4,58.0 892.4,58.0 892.4,34.0 898.4,34.0 898.4,58.0 904.4,58.0 904.4,34.0 910.4,34.0 910.4,58.0 916.4,58.0 916.4,34.0 922.4,34.0 922.4,58.0 928.4,58.0 928.4,34.0 934.4,34.0 934.4,58.0 940.4,58.0 940.4,34.0 946.4,34.0 946.4,58.0 952.4,58.0 952.4,34.0 958.4,34.0 958.4,58.0 964.4,58.0 964.4,34.0 970.4,34.0 970.4,58.0 976.4,58.0 976.4,34.0 982.4,34.0 982.4,58.0 994.4,58.0 994.4,34.0 1000.4,34.0 1000.4,58.0 1006.4,58.0 1006.4,34.0 1012.4,34.0 1012.4,58.0 1018.4,58.0 1018.4,34.0 1024.4,34.0 1024.4,58.0 1030.4,58.0 1030.4,34.0 1036.4,34.0 1036.4,58.0 1042.4,58.0 1042.4,34.0 1048.4,34.0 1048.4,58.0 1054.4,58.0 1054.4,34.0 1060.4,34.0 1060.4,58.0 1066.4,58.0 1066.4,34.0 1072.4,34.0 1072.4,58.0 1078.4,58.0 1078.4,34.0 1084.4,34.0 1084.4,58.0 1090.4,58.0 1090.4,34.0 1096.4,34.0 1096.4,58.0 1102.4,58.0 1102.4,34.0 1108.4,34.0 1108.4,58.0 1114.4,58.0 1114.4,34.0 1120.4,34.0 1120.4,58.0 1126.4,58.0 1126.4,34.0 1132.4,34.0 1132.4,58.0 1138.3999999999999,58.0 1138.3999999999999,34.0 1144.3999999999999,34.0 1144.3999999999999,58.0 1150.3999999999999,58.0 1150.3999999999999,34.0 1156.3999999999999,34.0 1156.3999999999999,58.0 1162.3999999999999,58.0 1162.3999999999999,34.0 1168.3999999999999,34.0 1168.3999999999999,58.0 1174.3999999999999,58.0 1174.3999999999999,34.0 1180.3999999999999,34.0 1180.3999999999999,58.0 1186.3999999999999,58.0 1186.3999999999999,34.0 1192.3999999999999,34.0 1192.3999999999999,58.0 1198.3999999999999,58.0 1198.3999999999999,34.0 1204.3999999999999,34.0 1204.3999999999999,58.0 1210.3999999999999,58.0 1210.3999999999999,34.0 1216.3999999999999,34.0 1216.3999999999999,58.0 1222.3999999999999,58.0 1222.3999999999999,34.0 1228.3999999999999,34.0 1228.3999999999999,58.0 1234.3999999999999,58.0 1234.3999999999999,34.0 1240.3999999999999,34.0 1240.3999999999999,58.0 1246.3999999999999,58.0 1246.3999999999999,34.0 1252.3999999999999,34.0 1252.3999999999999,58.0 1258.3999999999999,58.0 1258.3999999999999,34.0 1264.3999999999999,34.0 1264.3999999999999,58.0 1270.3999999999999,58.0 1270.3999999999999,34.0 1276.3999999999999,34.0 1276.3999999999999,58.0 1282.3999999999999,58.0 1282.3999999999999,34.0 1288.3999999999999,34.0 1288.3999999999999,58.0 1294.3999999999999,58.0 1294.3999999999999,34.0 1300.3999999999999,34.0 1300.3999999999999,58.0 1306.3999999999999,58.0 1306.3999999999999,34.0 1312.3999999999999,34.0 1312.3999999999999,58.0 1318.3999999999999,58.0 1318.3999999999999,34.0 1324.3999999999999,34.0 1324.3999999999999,58.0 1330.3999999999999,58.0 1330.3999999999999,34.0 1336.3999999999999,34.0 1336.3999999999999,58.0 1342.3999999999999,58.0 1342.3999999999999,34.0 1348.3999999999999,34.0 1348.3999999999999,58.0 1354.3999999999999,58.0 1354.3999999999999,34.0 1360.3999999999999,34.0 1360.3999999999999,58.0 1366.3999999999999,58.0 1366.3999999999999,34.0 1372.3999999999999,34.0 1372.3999999999999,58.0 1378.3999999999999,58.0 1378.3999999999999,34.0 1384.3999999999999,34.0 1384.3999999999999,58.0 1390.3999999999999,58.0 1390.3999999999999,34.0 1396.3999999999999,34.0 1396.3999999999999,58.0 1402.3999999999999,58.0 1402.3999999999999,34.0 1408.3999999999999,34.0 1408.3999999999999,58.0 1414.3999999999999,58.0 1414.3999999999999,34.0 1420.3999999999999,34.0 1420.3999999999999,58.0 1426.3999999999999,58.0 1426.3999999999999,34.0 1432.3999999999999,34.0 1432.3999999999999,58.0 1438.3999999999999,58.0 1438.3999999999999,34.0 1444.3999999999999,34.0 1444.3999999999999,58.0 1450.3999999999999,58.0 1450.3999999999999,34.0 1456.3999999999999,34.0 1456.3999999999999,58.0 1462.3999999999999,58.0 1462.3999999999999,34.0 1468.3999999999999,34.0 1468.3999999999999,58.0 1474.3999999999999,58.0 1474.3999999999999,34.0 1480.3999999999999,34.0 1480.3999999999999,58.0 1486.3999999999999,58.0 1486.3999999999999,34.0 1492.3999999999999,34.0 1492.3999999999999,58.0 1498.3999999999999,58.0 1498.3999999999999,34.0 1504.3999999999999,34.0 1504.3999999999999,58.0 1510.3999999999999,58.0 1510.3999999999999,34.0 1516.3999999999999,34.0 1516.3999999999999,58.0 1522.3999999999999,58.0 1522.3999999999999,34.0 1528.3999999999999,34.0 1528.3999999999999,58.0 1534.3999999999999,58.0 1534.3999999999999,34.0 1540.3999999999999,34.0 1540.3999999999999,58.0 1546.3999999999999,58.0 1546.3999999999999,34.0 1552.3999999999999,34.0 1552.3999999999999,58.0 1558.3999999999999,58.0 1558.3999999999999,34.0 1564.3999999999999,34.0 1564.3999999999999,58.0 1570.3999999999999,58.0 1570.3999999999999,34.0 1576.3999999999999,34.0 1576.3999999999999,58.0 1582.3999999999999,58.0 1582.3999999999999,34.0 1588.3999999999999,34.0 1588.3999999999999,58.0 1594.3999999999999,58.0 1594.3999999999999,34.0 1600.3999999999999,34.0 1600.3999999999999,58.0 1606.3999999999999,58.0 1606.3999999999999,34.0 1612.3999999999999,34.0 1612.3999999999999,58.0 1618.3999999999999,58.0 1618.3999999999999,34.0 1624.3999999999999,34.0 1624.3999999999999,58.0 1630.3999999999999,58.0 1630.3999999999999,34.0 1636.3999999999999,34.0 1636.3999999999999,58.0 1642.3999999999999,58.0 1642.3999999999999,34.0 1648.3999999999999,34.0 1648.3999999999999,58.0 1654.3999999999999,58.0 1654.3999999999999,34.0 1660.3999999999999,34.0 1660.3999999999999,58.0 1666.3999999999999,58.0 1666.3999999999999,34.0 1672.3999999999999,34.0 1672.3999999999999,58.0 1678.3999999999999,58.0 1678.3999999999999,34.0 1684.3999999999999,34.0 1684.3999999999999,58.0 1690.3999999999999,58.0 1690.3999999999999,34.0 1696.3999999999999,34.0 1696.3999999999999,58.0 1702.3999999999999,58.0 1702.3999999999999,34.0 1708.3999999999999,34.0 1708.3999999999999,58.0 1714.3999999999999,58.0 1714.3999999999999,34.0 1720.3999999999999,34.0 1720.3999999999999,58.0 1726.3999999999999,58.0 1726.3999999999999,34.0 1732.3999999999999,34.0 1732.3999999999999,58.0 1738.3999999999999,58.0 1738.3999999999999,34.0 1744.3999999999999,34.0 1744.3999999999999,58.0 1750.3999999999999,58.0 1750.3999999999999,34.0 1756.3999999999999,34.0 1756.3999999999999,58.0 1762.3999999999999,58.0 1762.3999999999999,34.0 1768.3999999999999,34.0 1768.3999999999999,58.0 1774.3999999999999,58.0 1774.3999999999999,34.0 1780.3999999999999,34.0 1780.3999999999999,58.0 1786.3999999999999,58.0 1786.3999999999999,34.0 1792.3999999999999,34.0 1792.3999999999999,58.0 1798.3999999999999,58.0 1798.3999999999999,34.0 1804.3999999999999,34.0 1804.3999999999999,58.0 1810.3999999999999,58.0 1810.3999999999999,34.0 1816.3999999999999,34.0 1816.3999999999999,58.0 1822.3999999999999,58.0 1822.3999999999999,34.0 1828.3999999999999,34.0 1828.3999999999999,58.0 1834.3999999999999,58.0 1834.3999999999999,34.0 1840.3999999999999,34.0 1840.3999999999999,58.0 1846.3999999999999,58.0 1846.3999999999999,34.0 1852.3999999999999,34.0 1852.3999999999999,58.0 1858.3999999999999,58.0 1858.3999999999999,34.0 1864.3999999999999,34.0 1864.3999999999999,58.0 1870.3999999999999,58.0 1870.3999999999999,34.0 1876.3999999999999,34.0 1876.3999999999999,58.0 1882.3999999999999,58.0 1882.3999999999999,34.0 1888.3999999999999,34.0 1888.3999999999999,58.0 1894.3999999999999,58.0 1894.3999999999999,34.0 1900.3999999999999,34.0 1900.3999999999999,58.0 1906.3999999999999,58.0 1906.3999999999999,34.0 1912.3999999999999,34.0 1912.3999999999999,58.0 1918.3999999999999,58.0 1918.3999999999999,34.0 1924.3999999999999,34.0 1924.3999999999999,58.0 1930.3999999999999,58.0 1930.3999999999999,34.0 1936.3999999999999,34.0 1936.3999999999999,58.0 1942.3999999999999,58.0 1942.3999999999999,34.0 1948.3999999999999,34.0 1948.3999999999999,58.0 1954.3999999999999,58.0 1954.3999999999999,34.0 1960.3999999999999,34.0 1960.3999999999999,58.0 1966.3999999999999,58.0 1966.3999999999999,34.0 1972.3999999999999,34.0 1972.3999999999999,58.0 1978.3999999999999,58.0 1978.3999999999999,34.0 1984.3999999999999,34.0 1984.3999999999999,58.0 1990.3999999999999,58.0 1990.3999999999999,34.0 1996.3999999999999,34.0 1996.3999999999999,58.0 2002.3999999999999,58.0 2002.3999999999999,34.0 2008.3999999999999,34.0 2008.3999999999999,58.0 2014.3999999999999,58.0 2014.3999999999999,34.0 2020.3999999999999,34.0 2020.3999999999999,58.0 2026.3999999999999,58.0 2026.3999999999999,34.0 2032.3999999999999,34.0 2032.3999999999999,58.0 2038.3999999999999,58.0 2038.3999999999999,34.0 2044.3999999999999,34.0 2044.3999999999999,58.0 2050.3999999999996,58.0 2050.3999999999996,34.0 2056.3999999999996,34.0 2056.3999999999996,58.0 2062.3999999999996,58.0 2062.3999999999996,34.0 2068.3999999999996,34.0 2068.3999999999996,58.0 2074.3999999999996,58.0 2074.3999999999996,34.0 2080.3999999999996,34.0 2080.3999999999996,58.0 2086.3999999999996,58.0 2086.3999999999996,34.0 2092.3999999999996,34.0 2092.3999999999996,58.0 2098.3999999999996,58.0 2098.3999999999996,34.0 2104.3999999999996,34.0 2104.3999999999996,58.0 2110.3999999999996,58.0 2110.3999999999996,34.0 2116.3999999999996,34.0 2116.3999999999996,58.0 2122.3999999999996,58.0 2122.3999999999996,34.0 2128.3999999999996,34.0 2128.3999999999996,58.0 2134.3999999999996,58.0 2134.3999999999996,34.0 2140.3999999999996,34.0 2140.3999999999996,58.0 2152.3999999999996,58.0 2152.3999999999996,34.0 2158.4,34.0 2158.4,58.0 2164.4,58.0 2164.4,34.0 2170.4,34.0 2170.4,58.0 2176.4,58.0 2176.4,34.0 2182.4,34.0 2182.4,58.0 2188.4,58.0 2188.4,34.0 2194.4,34.0 2194.4,58.0 2200.4,58.0 2200.4,34.0 2206.4,34.0 2206.4,58.0 2212.4,58.0 2212.4,34.0 2218.4,34.0 2218.4,58.0 2224.4,58.0 2224.4,34.0 2230.4,34.0 2230.4,58.0 2236.4,58.0 2236.4,34.0 2242.4,34.0 2242.4,58.0 2248.4,58.0 2248.4,34.0 2254.4,34.0 2254.4,58.0 2260.4,58.0 2260.4,34.0 2266.4,34.0 2266.4,58.0 2272.4,58.0 2272.4,34.0 2278.4,34.0 2278.4,58.0 2284.4,58.0 2284.4,34.0 2290.4,34.0 2290.4,58.0 2296.4,58.0 2296.4,34.0 2302.4,34.0 2302.4,58.0 2308.4,58.0 2308.4,34.0 2314.4,34.0 2314.4,58.0 2320.4,58.0 2320.4,34.0 2326.4,34.0 2326.4,58.0 2332.4,58.0 2332.4,34.0 2338.4,34.0 2338.4,58.0 2344.4,58.0 2344.4,34.0 2350.4,34.0 2350.4,58.0 2356.4,58.0 2356.4,34.0 2362.4,34.0 2362.4,58.0 2368.4,58.0 2368.4,34.0 2374.4,34.0 2374.4,58.0 2380.4,58.0 2380.4,34.0 2386.4,34.0 2386.4,58.0 2392.4,58.0 2392.4,34.0 2398.4,34.0 2398.4,58.0 2404.4,58.0 2404.4,34.0 2410.4,34.0 2410.4,58.0 2416.4,58.0 2416.4,34.0 2422.4,34.0 2422.4,58.0 2428.4,58.0 2428.4,34.0 2434.4,34.0 2434.4,58.0 2440.4,58.0 2440.4,34.0 2446.4,34.0 2446.4,58.0 2452.4,58.0 2452.4,34.0 2458.4,34.0 2458.4,58.0 2464.4,58.0 2464.4,34.0 2470.4,34.0 2470.4,58.0 2476.4,58.0 2476.4,34.0 2482.4,34.0 2482.4,58.0 2488.4,58.0 2488.4,34.0 2494.4,34.0 2494.4,58.0 2500.4,58.0 2500.4,34.0 2506.4,34.0 2506.4,58.0 2512.4,58.0 2512.4,34.0 2518.4,34.0 2518.4,58.0 2524.4,58.0 2524.4,34.0 2530.4,34.0 2530.4,58.0 2536.4,58.0 2536.4,34.0 2542.4,34.0 2542.4,58.0 2548.4,58.0 2548.4,34.0 2554.4,34.0 2554.4,58.0 2560.4,58.0 2560.4,34.0 2566.4,34.0 2566.4,58.0 2572.4,58.0 2572.4,34.0 2578.4,34.0 2578.4,58.0 2584.4,58.0 2584.4,34.0 2590.4,34.0 2590.4,58.0 2596.4,58.0 2596.4,34.0 2602.4,34.0 2602.4,58.0 2608.4,58.0 2608.4,34.0 2614.4,34.0 2614.4,58.0 2620.4,58.0 2620.4,34.0 2626.4,34.0 2626.4,58.0 2632.4,58.0 2632.4,34.0 2638.4,34.0 2638.4,58.0 2644.4,58.0 2644.4,34.0 2650.4,34.0 2650.4,58.0 2656.4,58.0 2656.4,34.0 2662.4,34.0 2662.4,58.0 2668.4,58.0 2668.4,34.0 2674.4,34.0 2674.4,58.0 2680.4,58.0 2680.4,34.0 2686.4,34.0 2686.4,58.0 2692.4,58.0 2692.4,34.0 2698.4,34.0 2698.4,58.0 2704.4,58.0 2704.4,34.0 2710.4,34.0 2710.4,58.0 2716.4,58.0 2716.4,34.0 2722.4,34.0 2722.4,58.0 2728.4,58.0 2728.4,34.0 2734.4,34.0 2734.4,58.0 2740.4,58.0 2740.4,34.0 2746.4,34.0 2746.4,58.0 2752.4,58.0 2752.4,34.0 2758.4,34.0 2758.4,58.0 2764.4,58.0 2764.4,34.0 2770.4,34.0 2770.4,58.0 2776.4,58.0 2776.4,34.0 2782.4,34.0 2782.4,58.0 2788.4,58.0 2788.4,34.0 2794.4,34.0 2794.4,58.0 2800.4,58.0 2800.4,34.0 2806.4,34.0 2806.4,58.0 2812.4,58.0 2812.4,34.0 2818.4,34.0 2818.4,58.0 2824.4,58.0 2824.4,34.0 2830.4,34.0 2830.4,58.0 2836.4,58.0 2836.4,34.0 2842.4,34.0 2842.4,58.0 2848.4,58.0 2848.4,34.0 2854.4,34.0 2854.4,58.0 2860.4,58.0 2860.4,34.0 2866.4,34.0 2866.4,58.0 2872.4,58.0 2872.4,34.0 2878.4,34.0 2878.4,58.0 2884.4,58.0 2884.4,34.0 2890.4,34.0 2890.4,58.0 2896.4,58.0 2896.4,34.0 2902.4,34.0 2902.4,58.0 2908.4,58.0 2908.4,34.0 2914.4,34.0 2914.4,58.0 2926.4,58.0 2926.4,34.0 2932.4,34.0 2932.4,58.0 2938.4,58.0 2938.4,34.0 2944.4,34.0 2944.4,58.0 2950.4,58.0 2950.4,34.0 2956.4,34.0 2956.4,58.0 2962.4,58.0 2962.4,34.0 2968.4,34.0 2968.4,58.0 2974.4,58.0 2974.4,34.0 2980.4,34.0 2980.4,58.0 2986.4,58.0 2986.4,34.0 2992.4,34.0 2992.4,58.0 2998.4,58.0 2998.4,34.0 3004.4,34.0 3004.4,58.0 3010.4,58.0 3010.4,34.0 3016.4,34.0 3016.4,58.0 3022.4,58.0 3022.4,34.0 3028.4,34.0 3028.4,58.0 3034.4,58.0 3034.4,34.0 3040.4,34.0 3040.4,58.0 3046.4,58.0 3046.4,34.0 3052.4,34.0 3052.4,58.0 3058.4,58.0 3058.4,34.0 3064.4,34.0 3064.4,58.0 3070.4,58.0 3070.4,34.0 3076.4,34.0 3076.4,58.0 3082.4,58.0 3082.4,34.0 3088.4,34.0 3088.4,58.0 3094.4,58.0 3094.4,34.0 3100.4,34.0 3100.4,58.0 3106.4,58.0 3106.4,34.0 3112.4,34.0 3112.4,58.0 3118.4,58.0 3118.4,34.0 3124.4,34.0 3124.4,58.0 3130.4,58.0 3130.4,34.0 3136.4,34.0 3136.4,58.0 3142.4,58.0 3142.4,34.0 3148.4,34.0 3148.4,58.0 3154.4,58.0 3154.4,34.0 3160.4,34.0 3160.4,58.0 3166.4,58.0 3166.4,34.0 3172.4,34.0 3172.4,58.0 3178.4,58.0 3178.4,34.0 3184.4,34.0 3184.4,58.0 3190.4,58.0 3190.4,34.0 3196.4,34.0 3196.4,58.0 3202.4,58.0 3202.4,34.0 3208.4,34.0 3208.4,58.0 3214.4,58.0 3214.4,34.0 3220.4,34.0 3220.4,58.0 3226.4,58.0 3226.4,34.0 3232.4,34.0 3232.4,58.0 3238.4,58.0 3238.4,34.0 3244.4,34.0 3244.4,58.0 3250.4,58.0 3250.4,34.0 3256.4,34.0 3256.4,58.0 3262.4,58.0 3262.4,34.0 3268.4,34.0 3268.4,58.0 3274.4,58.0 3274.4,34.0 3280.4,34.0 3280.4,58.0 3286.4,58.0 3286.4,34.0 3292.4,34.0 3292.4,58.0 3298.4,58.0 3298.4,34.0 3304.4,34.0 3304.4,58.0 3310.4,58.0 3310.4,34.0 3316.4,34.0 3316.4,58.0 3322.4,58.0 3322.4,34.0 3328.4,34.0 3328.4,58.0 3334.4,58.0 3334.4,34.0 3340.4,34.0 3340.4,58.0 3346.4,58.0 3346.4,34.0 3352.4,34.0 3352.4,58.0 3358.4,58.0 3358.4,34.0 3364.4,34.0 3364.4,58.0 3370.4,58.0 3370.4,34.0 3376.4,34.0 3376.4,58.0 3382.4,58.0 3382.4,34.0 3388.4,34.0 3388.4,58.0 3394.4,58.0 3394.4,34.0 3400.4,34.0 3400.4,58.0 3406.4,58.0 3406.4,34.0 3412.4,34.0 3412.4,58.0 3418.4,58.0 3418.4,34.0 3424.4,34.0 3424.4,58.0 3430.4,58.0 3430.4,34.0 3436.4,34.0 3436.4,58.0 3442.4,58.0 3442.4,34.0 3448.4,34.0 3448.4,58.0 3454.4,58.0 3454.4,34.0 3460.4,34.0 3460.4,58.0 3466.4,58.0 3466.4,34.0 3472.4,34.0 3472.4,58.0 3478.4,58.0 3478.4,34.0 3484.4,34.0 3484.4,58.0 3490.4,58.0 3490.4,34.0 3496.4,34.0 3496.4,58.0 3502.4,58.0 3502.4,34.0 3508.4,34.0 3508.4,58.0 3514.4,58.0 3514.4,34.0 3520.4,34.0 3520.4,58.0 3526.4,58.0 3526.4,34.0 3532.4,34.0 3532.4,58.0 3538.4,58.0 3538.4,34.0 3544.4,34.0 3544.4,58.0 3550.4,58.0 3550.4,34.0 3556.4,34.0 3556.4,58.0 3562.4,58.0 3562.4,34.0 3568.4,34.0 3568.4,58.0 3574.4,58.0 3574.4,34.0 3580.4,34.0 3580.4,58.0 3586.4,58.0 3586.4,34.0 3592.4,34.0 3592.4,58.0 3598.4,58.0 3598.4,34.0 3604.4,34.0 3604.4,58.0 3610.4,58.0 3610.4,34.0 3616.4,34.0 3616.4,58.0 3622.4,58.0 3622.4,34.0 3628.4,34.0 3628.4,58.0 3634.4,58.0 3634.4,34.0 3640.4,34.0 3640.4,58.0 3646.4,58.0 3646.4,34.0 3652.4,34.0 3652.4,58.0 3658.4,58.0 3658.4,34.0 3664.4,34.0 3664.4,58.0 3670.4,58.0 3670.4,34.0 3676.4,34.0 3676.4,58.0 3682.4,58.0 3682.4,34.0 3688.4,34.0 3688.4,58.0 3700.4,58.0 3700.4,34.0 3706.4,34.0 3706.4,58.0 3712.4,58.0 3712.4,34.0 3718.4,34.0 3718.4,58.0 3724.4,58.0 3724.4,34.0 3730.4,34.0 3730.4,58.0 3736.4,58.0 3736.4,34.0 3742.4,34.0 3742.4,58.0 3748.4,58.0 3748.4,34.0 3754.4,34.0 3754.4,58.0 3760.4,58.0 3760.4,34.0 3766.4,34.0 3766.4,58.0 3772.4,58.0 3772.4,34.0 3778.4,34.0 3778.4,58.0 3784.4,58.0 3784.4,34.0 3790.4,34.0 3790.4,58.0 3796.3999999999996,58.0 3796.3999999999996,34.0 3802.3999999999996,34.0 3802.3999999999996,58.0 3808.3999999999996,58.0 3808.3999999999996,34.0 3814.3999999999996,34.0 3814.3999999999996,58.0 3820.3999999999996,58.0 3820.3999999999996,34.0 3826.3999999999996,34.0 3826.3999999999996,58.0 3832.3999999999996,58.0 3832.3999999999996,34.0 3838.3999999999996,34.0 3838.3999999999996,58.0 3844.3999999999996,58.0 3844.3999999999996,34.0 3850.3999999999996,34.0 3850.3999999999996,58.0 3856.3999999999996,58.0 3856.3999999999996,34.0 3862.3999999999996,34.0 3862.3999999999996,58.0 3868.3999999999996,58.0 3868.3999999999996,34.0 3874.3999999999996,34.0 3874.3999999999996,58.0 3880.3999999999996,58.0 3880.3999999999996,34.0 3886.3999999999996,34.0 3886.3999999999996,58.0 3892.3999999999996,58.0 3892.3999999999996,34.0 3898.3999999999996,34.0 3898.3999999999996,58.0 3904.3999999999996,58.0 3904.3999999999996,34.0 3910.3999999999996,34.0 3910.3999999999996,58.0 3916.3999999999996,58.0 3916.3999999999996,34.0 3922.3999999999996,34.0 3922.3999999999996,58.0 3928.3999999999996,58.0 3928.3999999999996,34.0 3934.3999999999996,34.0 3934.3999999999996,58.0 3940.3999999999996,58.0 3940.3999999999996,34.0 3946.3999999999996,34.0 3946.3999999999996,58.0 3952.3999999999996,58.0 3952.3999999999996,34.0 3958.3999999999996,34.0 3958.3999999999996,58.0 3964.3999999999996,58.0 3964.3999999999996,34.0 3970.3999999999996,34.0 3970.3999999999996,58.0 3976.3999999999996,58.0 3976.3999999999996,34.0 3982.3999999999996,34.0 3982.3999999999996,58.0 3988.3999999999996,58.0 3988.3999999999996,34.0 3994.3999999999996,34.0 3994.3999999999996,58.0 4000.3999999999996,58.0 4000.3999999999996,34.0 4006.3999999999996,34.0 4006.3999999999996,58.0 4012.3999999999996,58.0 4012.3999999999996,34.0 4018.3999999999996,34.0 4018.3999999999996,58.0 4024.3999999999996,58.0 4024.3999999999996,34.0 4030.3999999999996,34.0 4030.3999999999996,58.0 4036.3999999999996,58.0 4036.3999999999996,34.0 4042.3999999999996,34.0 4042.3999999999996,58.0 4048.3999999999996,58.0 4048.3999999999996,34.0 4054.3999999999996,34.0 4054.3999999999996,58.0 4060.3999999999996,58.0 4060.3999999999996,34.0 4066.3999999999996,34.0 4066.3999999999996,58.0 4072.3999999999996,58.0 4072.3999999999996,34.0 4078.3999999999996,34.0 4078.3999999999996,58.0 4084.3999999999996,58.0 4084.3999999999996,34.0 4090.3999999999996,34.0 4090.3999999999996,58.0 4096.4,58.0 4096.4,34.0 4102.4,34.0 4102.4,58.0 4108.4,58.0 4108.4,34.0 4114.4,34.0 4114.4,58.0 4120.4,58.0 4120.4,34.0 4126.4,34.0 4126.4,58.0 4132.4,58.0 4132.4,34.0 4138.4,34.0 4138.4,58.0 4144.4,58.0 4144.4,34.0 4150.4,34.0 4150.4,58.0 4156.4,58.0 4156.4,34.0 4162.4,34.0 4162.4,58.0 4168.4,58.0 4168.4,34.0 4174.4,34.0 4174.4,58.0 4180.4,58.0 4180.4,34.0 4186.4,34.0 4186.4,58.0 4192.4,58.0 4192.4,34.0 4198.4,34.0 4198.4,58.0 4204.4,58.0 4204.4,34.0 4210.4,34.0 4210.4,58.0 4216.4,58.0 4216.4,34.0 4222.4,34.0 4222.4,58.0 4228.4,58.0 4228.4,34.0 4234.4,34.0 4234.4,58.0 4240.4,58.0 4240.4,34.0 4246.4,34.0 4246.4,58.0 4252.4,58.0 4252.4,34.0 4258.4,34.0 4258.4,58.0 4264.4,58.0 4264.4,34.0 4270.4,34.0 4270.4,58.0 4276.4,58.0 4276.4,34.0 4282.4,34.0 4282.4,58.0 4288.4,58.0 4288.4,34.0 4294.4,34.0 4294.4,58.0 4300.4,58.0 4300.4,34.0 4306.4,34.0 4306.4,58.0 4312.4,58.0 4312.4,34.0 4318.4,34.0 4318.4,58.0 4324.4,58.0 4324.4,34.0 4330.4,34.0 4330.4,58.0 4336.4,58.0 4336.4,34.0 4342.4,34.0 4342.4,58.0 4348.4,58.0 4348.4,34.0 4354.4,34.0 4354.4,58.0 4360.4,58.0 4360.4,34.0 4366.4,34.0 4366.4,58.0 4372.4,58.0 4372.4,34.0 4378.4,34.0 4378.4,58.0 4384.4,58.0 4384.4,34.0 4390.4,34.0 4390.4,58.0 4396.4,58.0 4396.4,34.0 4402.4,34.0 4402.4,58.0 4408.4,58.0 4408.4,34.0 4414.4,34.0 4414.4,58.0 4420.4,58.0 4420.4,34.0 4426.4,34.0 4426.4,58.0 4432.4,58.0 4432.4,34.0 4438.4,34.0 4438.4,58.0 4444.4,58.0 4444.4,34.0 4450.4,34.0 4450.4,58.0 4456.4,58.0 4456.4,34.0 4462.4,34.0 4462.4,58.0 4474.4,58.0 4474.4,34.0 4480.4,34.0 4480.4,58.0 4486.4,58.0 4486.4,34.0 4492.4,34.0 4492.4,58.0 4498.4,58.0 4498.4,34.0 4504.4,34.0 4504.4,58.0 4510.4,58.0 4510.4,34.0 4516.4,34.0 4516.4,58.0 4522.4,58.0 4522.4,34.0 4528.4,34.0 4528.4,58.0 4534.4,58.0 4534.4,34.0 4540.4,34.0 4540.4,58.0 4546.4,58.0 4546.4,34.0 4552.4,34.0 4552.4,58.0 4558.4,58.0 4558.4,34.0 4564.4,34.0 4564.4,58.0 4570.4,58.0 4570.4,34.0 4576.4,34.0 4576.4,58.0 4582.4,58.0 4582.4,34.0 4588.4,34.0 4588.4,58.0 4594.4,58.0 4594.4,34.0 4600.4,34.0 4600.4,58.0 4606.4,58.0 4606.4,34.0 4612.4,34.0 4612.4,58.0 4618.4,58.0 4618.4,34.0 4624.4,34.0 4624.4,58.0 4630.4,58.0 4630.4,34.0 4636.4,34.0 4636.4,58.0 4642.4,58.0 4642.4,34.0 4648.4,34.0 4648.4,58.0 4654.4,58.0 4654.4,34.0 4660.4,34.0 4660.4,58.0 4666.4,58.0 4666.4,34.0 4672.4,34.0 4672.4,58.0 4678.4,58.0 4678.4,34.0 4684.4,34.0 4684.4,58.0 4690.4,58.0 4690.4,34.0 4696.4,34.0 4696.4,58.0 4702.4,58.0 4702.4,34.0 4708.4,34.0 4708.4,58.0 4714.4,58.0 4714.4,34.0 4720.4,34.0 4720.4,58.0 4726.4,58.0 4726.4,34.0 4732.4,34.0 4732.4,58.0 4738.4,58.0 4738.4,34.0 4744.4,34.0 4744.4,58.0 4750.4,58.0 4750.4,34.0 4756.4,34.0 4756.4,58.0 4762.4,58.0 4762.4,34.0 4768.4,34.0 4768.4,58.0 4774.4,58.0 4774.4,34.0 4780.4,34.0 4780.4,58.0 4786.4,58.0 4786.4,34.0 4792.4,34.0 4792.4,58.0 4798.4,58.0 4798.4,34.0 4804.4,34.0 4804.4,58.0 4810.4,58.0 4810.4,34.0 4816.4,34.0 4816.4,58.0 4822.4,58.0 4822.4,34.0 4828.4,34.0 4828.4,58.0 4834.4,58.0 4834.4,34.0 4840.4,34.0 4840.4,58.0 4846.4,58.0 4846.4,34.0 4852.4,34.0 4852.4,58.0 4858.4,58.0 4858.4,34.0 4864.4,34.0 4864.4,58.0 4870.4,58.0 4870.4,34.0 4876.4,34.0 4876.4,58.0 4882.4,58.0 4882.4,34.0 4888.4,34.0 4888.4,58.0 4894.4,58.0 4894.4,34.0 4900.4,34.0 4900.4,58.0 4906.4,58.0 4906.4,34.0 4912.4,34.0 4912.4,58.0 4918.4,58.0 4918.4,34.0 4924.4,34.0 4924.4,58.0 4930.4,58.0 4930.4,34.0 4936.4,34.0 4936.4,58.0 4942.4,58.0 4942.4,34.0 4948.4,34.0 4948.4,58.0 4954.4,58.0 4954.4,34.0 4960.4,34.0 4960.4,58.0 4966.4,58.0 4966.4,34.0 4972.4,34.0 4972.4,58.0 4978.4,58.0 4978.4,34.0 4984.4,34.0 4984.4,58.0 4990.4,58.0 4990.4,34.0 4996.4,34.0 4996.4,58.0 5002.4,58.0 5002.4,34.0 5008.4,34.0 5008.4,58.0 5014.4,58.0 5014.4,34.0 5020.4,34.0 5020.4,58.0 5026.4,58.0 5026.4,34.0 5032.4,34.0 5032.4,58.0 5038.4,58.0 5038.4,34.0 5044.4,34.0 5044.4,58.0 5050.4,58.0 5050.4,34.0 5056.4,34.0 5056.4,58.0 5062.4,58.0 5062.4,34.0 5068.4,34.0 5068.4,58.0 5074.4,58.0 5074.4,34.0 5080.4,34.0 5080.4,58.0 5086.4,58.0 5086.4,34.0 5092.4,34.0 5092.4,58.0 5098.4,58.0 5098.4,34.0 5104.4,34.0 5104.4,58.0 5110.4,58.0 5110.4,34.0 5116.4,34.0 5116.4,58.0 5122.4,58.0 5122.4,34.0 5128.4,34.0 5128.4,58.0 5134.4,58.0 5134.4,34.0 5140.4,34.0 5140.4,58.0 1276.3999999999999,58.0" stroke="#1a202c" stroke-width="1.5" /><text font-family="monospace" font-size="12px" x="10" y="88.0">spi0.mosi</text><polyline fill="none" points="110.0,74.0 110.0,74.0 208.39999999999998,74.0 208.39999999999998,74.0 214.39999999999998,74.0 214.39999999999998,74.0" stroke="#1a202c" stroke-width="1.5" /><polyline fill="none" points="214.39999999999998,74.0 214.39999999999998,98.0 226.39999999999998,98.0 226.39999999999998,74.0 238.4,74.0 238.4,98.0 694.4,98.0 694.4,74.0 706.4,74.0 706.4,98.0 730.4,98.0 730.4,74.0 742.4,74.0 742.4,98.0 754.4,98.0 754.4,74.0 766.4,74.0 766.4,98.0 778.4,98.0 778.4,74.0 886.4,74.0 886.4,98.0 982.4,98.0 982.4,98.0" stroke="#2b6cb0" stroke-width="1.5" /><polyline fill="none" points="982.4,98.0 982.4,98.0 988.4,98.0 988.4,98.0" stroke="#1a202c" stroke-width="1.5" /><polyline fill="none" points="988.4,98.0 988.4,98.0 1000.4,98.0 1000.4,74.0 1012.4,74.0 1012.4,98.0 1036.4,98.0 1036.4,74.0 1048.4,74.0 1048.4,98.0 1276.3999999999999,98.0" stroke="#2b6cb0" stroke-width="1.5" /><text font-family="monospace" font-size="12px" x="10" y="128.0">spi0.miso</text><polyline fill="none" points="110.0,114.0 110.0,114.0 208.39999999999998,114.0 208.39999999999998,114.0 214.39999999999998,114.0 214.39999999999998,114.0" stroke="#1a202c" stroke-width="1.5" /><polyline fill="none" points="214.39999999999998,114.0 214.39999999999998,138.0 790.4,138.0 790.4,114.0 886.4,114.0 886.4,138.0 970.4,138.0 970.4,114.0 982.4,114.0 982.4,114.0" stroke="#38a169" stroke-width="1.5" /><polyline fill="none" points="982.4,114.0 982.4,114.0 988.4,114.0 988.4,114.0" stroke="#1a202c" stroke-width="1.5" /><polyline fill="none" points="988.4,114.0 988.4,138.0 1276.3999999999999,138.0" stroke="#38a169" stroke-width="1.5" /><text font-family="monospace" font-size="12px" x="10" y="168.0">spi0.cs</text><polyline fill="none" points="110.0,154.0 208.39999999999998,154.0 208.39999999999998,154.0 214.39999999999998,154.0 214.39999999999998,178.0 982.4,178.0 982.4,154.0 988.4,154.0 988.4,178.0 2140.3999999999996,178.0 2140.3999999999996,154.0 2146.3999999999996,154.0 2146.3999999999996,178.0 2914.4,178.0 2914.4,154.0 2920.4,154.0 2920.4,178.0 3688.4,178.0 3688.4,154.0 3694.4,154.0 3694.4,178.0 4462.4,178.0 4462.4,154.0 4468.4,154.0 4468.4,178.0 5140.4,178.0 5140.4,154.0 1276.3999999999999,154.0" stroke="#1a202c" stroke-width="1.5" /><text fill="#6b46c1" font-family="monospace" font-size="10px" x="10" y="201.6">bitorder</text><rect fill="#6b46c1" fill-opacity="0.25" height="20" stroke="#6b46c1" stroke-width="0.5" width="768.0" x="214.39999999999998" y="188" /><text fill="#6b46c1" font-family="monospace" font-size="9px" x="216.39999999999998" y="202.8">msb</text><rect fill="#6b46c1" fill-opacity="0.25" height="20" stroke="#6b46c1" stroke-width="0.5" width="287.9999999999999" x="988.4" y="188" /><text fill="#6b46c1" font-family="monospace" font-size="9px" x="990.4" y="202.8">msb</text><text fill="#dd6b20" font-family="monospace" font-size="10px" x="10" y="225.6">field</text><rect fill="#dd6b20" fill-opacity="0.25" height="20" stroke="#dd6b20" stroke-width="0.5" width="96.0" x="214.39999999999998" y="212" /><text fill="#dd6b20" font-family="monospace" font-size="9px" x="216.39999999999998" y="226.8">CMD0</text><rect fill="#dd6b20" fill-opacity="0.25" height="20" stroke="#dd6b20" stroke-width="0.5" width="96.0" x="310.4" y="212" /><text fill="#dd6b20" font-family="monospace" font-size="9px" x="312.4" y="226.8">ARG=0x00000000</text><rect fill="#dd6b20" fill-opacity="0.25" height="20" stroke="#dd6b20" stroke-width="0.5" width="96.0" x="406.4" y="212" /><text fill="#dd6b20" font-family="monospace" font-size="9px" x="408.4" y="226.8">ARG=0x00000000</text><rect fill="#dd6b20" fill-opacity="0.25" height="20" stroke="#dd6b20" stroke-width="0.5" width="96.0" x="502.4" y="212" /><text fill="#dd6b20" font-family="monospace" font-size="9px" x="504.4" y="226.8">ARG=0x00000000</text><rect fill="#dd6b20" fill-opacity="0.25" height="20" stroke="#dd6b20" stroke-width="0.5" width="96.0" x="598.4" y="212" /><text fill="#dd6b20" font-family="monospace" font-size="9px" x="600.4" y="226.8">ARG=0x00000000</text><rect fill="#dd6b20" fill-opacity="0.25" height="20" stroke="#dd6b20" stroke-width="0.5" width="96.0" x="694.4" y="212" /><text fill="#dd6b20" font-family="monospace" font-size="9px" x="696.4" y="226.8">CRC7</text><rect fill="#dd6b20" fill-opacity="0.25" height="20" stroke="#dd6b20" stroke-width="0.5" width="96.0" x="790.4" y="212" /><text fill="#dd6b20" font-family="monospace" font-size="9px" x="792.4" y="226.8">NCR</text><rect fill="#dd6b20" fill-opacity="0.25" height="20" stroke="#dd6b20" stroke-width="0.5" width="96.0" x="886.4" y="212" /><text fill="#dd6b20" font-family="monospace" font-size="9px" x="888.4" y="226.8">R1=IDLE</text><rect fill="#dd6b20" fill-opacity="0.25" height="20" stroke="#dd6b20" stroke-width="0.5" width="96.00000000000011" x="988.4" y="212" /><text fill="#dd6b20" font-family="monospace" font-size="9px" x="990.4" y="226.8">CMD8</text><rect fill="#dd6b20" fill-opacity="0.25" height="20" stroke="#dd6b20" stroke-width="0.5" width="95.99999999999977" x="1084.4" y="212" /><text fill="#dd6b20" font-family="monospace" font-size="9px" x="1086.4" y="226.8">ARG=0x000001AA</text><rect fill="#dd6b20" fill-opacity="0.25" height="20" stroke="#dd6b20" stroke-width="0.5" width="96.0" x="1180.3999999999999" y="212" /><text fill="#dd6b20" font-family="monospace" font-size="9px" x="1182.3999999999999" y="226.8">ARG=0x000001AA</text><text fill="#4a5568" font-family="monospace" font-size="10px" x="10" y="253">chunk 2/5 — samples 972-2016  (97.2-201.7 µs)</text><rect fill="#e2e8f0" height="160" width="96.0" x="110.0" y="258" /><rect fill="#edf2f7" height="160" width="96.0" x="206.0" y="258" /><rect fill="#e2e8f0" height="160" width="96.0" x="302.0" y="258" /><rect fill="#edf2f7" height="160" width="96.0" x="398.0" y="258" /><rect fill="#e2e8f0" height="160" width="96.0" x="494.0" y="258" /><rect fill="#edf2f7" height="160" width="96.0" x="590.0" y="258" /><rect fill="#e2e8f0" height="160" width="96.0" x="686.0" y="258" /><rect fill="#edf2f7" height="160" width="96.0" x="782.0" y="258" /><rect fill="#e2e8f0" height="160" width="96.0" x="878.0" y="258" /><rect fill="#edf2f7" height="160" width="96.0" x="980.0" y="258" /><rect fill="#e2e8f0" height="160" width="96.0" x="1076.0" y="258" /><rect fill="#edf2f7" height="160" width="96.0" x="1172.0" y="258" /><rect fill="#e2e8f0" height="160" width="96.0" x="1268.0" y="258" /><text font-family="monospace" font-size="12px" x="10" y="280.0">spi0.sclk</text><polyline fill="none" points="110.0,290.0 116.0,290.0 116.0,266.0 122.0,266.0 122.0,290.0 128.0,290.0 128.0,266.0 134.0,266.0 134.0,290.0 140.0,290.0 140.0,266.0 146.0,266.0 146.0,290.0 152.0,290.0 152.0,266.0 158.0,266.0 158.0,290.0 164.0,290.0 164.0,266.0 170.0,266.0 170.0,290.0 176.0,290.0 176.0,266.0 182.0,266.0 182.0,290.0 188.0,290.0 188.0,266.0 194.0,266.0 194.0,290.0 200.0,290.0 200.0,266.0 206.0,266.0 206.0,290.0 212.0,290.0 212.0,266.0 218.0,266.0 218.0,290.0 224.0,290.0 224.0,266.0 230.0,266.0 230.0,290.0 236.0,290.0 236.0,266.0 242.0,266.0 242.0,290.0 248.0,290.0 248.0,266.0 254.0,266.0 254.0,290.0 260.0,290.0 260.0,266.0 266.0,266.0 266.0,290.0 272.0,290.0 272.0,266.0 278.0,266.0 278.0,290.0 284.0,290.0 284.0,266.0 290.0,266.0 290.0,290.0 296.0,290.0 296.0,266.0 302.0,266.0 302.0,290.0 308.0,290.0 308.0,266.0 314.0,266.0 314.0,290.0 320.0,290.0 320.0,266.0 326.0,266.0 326.0,290.0 332.0,290.0 332.0,266.0 338.0,266.0 338.0,290.0 344.0,290.0 344.0,266.0 350.0,266.0 350.0,290.0 356.0,290.0 356.0,266.0 362.0,266.0 362.0,290.0 368.0,290.0 368.0,266.0 374.0,266.0 374.0,290.0 380.0,290.0 380.0,266.0 386.0,266.0 386.0,290.0 392.0,290.0 392.0,266.0 398.0,266.0 398.0,290.0 404.0,290.0 404.0,266.0 410.0,266.0 410.0,290.0 416.0,290.0 416.0,266.0 422.0,266.0 422.0,290.0 428.0,290.0 428.0,266.0 434.0,266.0 434.0,290.0 440.0,290.0 440.0,266.0 446.0,266.0 446.0,290.0 452.0,290.0 452.0,266.0 458.0,266.0 458.0,290.0 464.0,290.0 464.0,266.0 470.0,266.0 470.0,290.0 476.0,290.0 476.0,266.0 482.0,266.0 482.0,290.0 488.0,290.0 488.0,266.0 494.0,266.0 494.0,290.0 500.0,290.0 500.0,266.0 506.0,266.0 506.0,290.0 512.0,290.0 512.0,266.0 518.0,266.0 518.0,290.0 524.0,290.0 524.0,266.0 530.0,266.0 530.0,290.0 536.0,290.0 536.0,266.0 542.0,266.0 542.0,290.0 548.0,290.0 548.0,266.0 554.0,266.0 554.0,290.0 560.0,290.0 560.0,266.0 566.0,266.0 566.0,290.0 572.0,290.0 572.0,266.0 578.0,266.0 578.0,290.0 584.0,290.0 584.0,266.0 590.0,266.0 590.0,290.0 596.0,290.0 596.0,266.0 602.0,266.0 602.0,290.0 608.0,290.0 608.0,266.0 614.0,266.0 614.0,290.0 620.0,290.0 620.0,266.0 626.0,266.0 626.0,290.0 632.0,290.0 632.0,266.0 638.0,266.0 638.0,290.0 644.0,290.0 644.0,266.0 650.0,266.0 650.0,290.0 656.0,290.0 656.0,266.0 662.0,266.0 662.0,290.0 668.0,290.0 668.0,266.0 674.0,266.0 674.0,290.0 680.0,290.0 680.0,266.0 686.0,266.0 686.0,290.0 692.0,290.0 692.0,266.0 698.0,266.0 698.0,290.0 704.0,290.0 704.0,266.0 710.0,266.0 710.0,290.0 716.0,290.0 716.0,266.0 722.0,266.0 722.0,290.0 728.0,290.0 728.0,266.0 734.0,266.0 734.0,290.0 740.0,290.0 740.0,266.0 746.0,266.0 746.0,290.0 752.0,290.0 752.0,266.0 758.0,266.0 758.0,290.0 764.0,290.0 764.0,266.0 770.0,266.0 770.0,290.0 776.0,290.0 776.0,266.0 782.0,266.0 782.0,290.0 788.0,290.0 788.0,266.0 794.0,266.0 794.0,290.0 800.0,290.0 800.0,266.0 806.0,266.0 806.0,290.0 812.0,290.0 812.0,266.0 818.0,266.0 818.0,290.0 824.0,290.0 824.0,266.0 830.0,266.0 830.0,290.0 836.0,290.0 836.0,266.0 842.0,266.0 842.0,290.0 848.0,290.0 848.0,266.0 854.0,266.0 854.0,290.0 860.0,290.0 860.0,266.0 866.0,266.0 866.0,290.0 872.0,290.0 872.0,266.0 878.0,266.0 878.0,290.0 884.0,290.0 884.0,266.0 890.0,266.0 890.0,290.0 896.0,290.0 896.0,266.0 902.0,266.0 902.0,290.0 908.0,290.0 908.0,266.0 914.0,266.0 914.0,290.0 920.0,290.0 920.0,266.0 926.0,266.0 926.0,290.0 932.0,290.0 932.0,266.0 938.0,266.0 938.0,290.0 944.0,290.0 944.0,266.0 950.0,266.0 950.0,290.0 956.0,290.0 956.0,266.0 962.0,266.0 962.0,290.0 968.0,290.0 968.0,266.0 974.0,266.0 974.0,290.0 986.0,290.0 986.0,266.0 992.0,266.0 992.0,290.0 998.0,290.0 998.0,266.0 1004.0,266.0 1004.0,290.0 1010.0,290.0 1010.0,266.0 1016.0,266.0 1016.0,290.0 1022.0,290.0 1022.0,266.0 1028.0,266.0 1028.0,290.0 1034.0,290.0 1034.0,266.0 1040.0,266.0 1040.0,290.0 1046.0,290.0 1046.0,266.0 1052.0,266.0 1052.0,290.0 1058.0,290.0 1058.0,266.0 1064.0,266.0 1064.0,290.0 1070.0,290.0 1070.0,266.0 1076.0,266.0 1076.0,290.0 1082.0,290.0 1082.0,266.0 1088.0,266.0 1088.0,290.0 1094.0,290.0 1094.0,266.0 1100.0,266.0 1100.0,290.0 1106.0,290.0 1106.0,266.0 1112.0,266.0 1112.0,290.0 1118.0,290.0 1118.0,266.0 1124.0,266.0 1124.0,290.0 1130.0,290.0 1130.0,266.0 1136.0,266.0 1136.0,290.0 1142.0,290.0 1142.0,266.0 1148.0,266.0 1148.0,290.0 1154.0,290.0 1154.0,266.0 1160.0,266.0 1160.0,290.0 1166.0,290.0 1166.0,266.0 1172.0,266.0 1172.0,290.0 1178.0,290.0 1178.0,266.0 1184.0,266.0 1184.0,290.0 1190.0,290.0 1190.0,266.0 1196.0,266.0 1196.0,290.0 1202.0,290.0 1202.0,266.0 1208.0,266.0 1208.0,290.0 1214.0,290.0 1214.0,266.0 1220.0,266.0 1220.0,290.0 1226.0,290.0 1226.0,266.0 1232.0,266.0 1232.0,290.0 1238.0,290.0 1238.0,266.0 1244.0,266.0 1244.0,290.0 1250.0,290.0 1250.0,266.0 1256.0,266.0 1256.0,290.0 1262.0,290.0 1262.0,266.0 1268.0,266.0 1268.0,290.0 1274.0,290.0 1274.0,266.0 1280.0,266.0 1280.0,290.0 1286.0,290.0 1286.0,266.0 1292.0,266.0 1292.0,290.0 1298.0,290.0 1298.0,266.0 1304.0,266.0 1304.0,290.0 1310.0,290.0 1310.0,266.0 1316.0,266.0 1316.0,290.0 1322.0,290.0 1322.0,266.0 1328.0,266.0 1328.0,290.0 1334.0,290.0 1334.0,266.0 1340.0,266.0 1340.0,290.0 1346.0,290.0 1346.0,266.0 1352.0,266.0 1352.0,290.0 1358.0,290.0 1358.0,266.0 1364.0,266.0 1364.0,290.0 1370.0,290.0 1370.0,266.0 1376.0,266.0 1376.0,290.0 1382.0,290.0 1382.0,266.0 1388.0,266.0 1388.0,290.0 1394.0,290.0 1394.0,266.0 1400.0,266.0 1400.0,290.0 1406.0,290.0 1406.0,266.0 1412.0,266.0 1412.0,290.0 1418.0,290.0 1418.0,266.0 1424.0,266.0 1424.0,290.0 1430.0,290.0 1430.0,266.0 1436.0,266.0 1436.0,290.0 1442.0,290.0 1442.0,266.0 1448.0,266.0 1448.0,290.0 1454.0,290.0 1454.0,266.0 1460.0,266.0 1460.0,290.0 1466.0,290.0 1466.0,266.0 1472.0,266.0 1472.0,290.0 1478.0,290.0 1478.0,266.0 1484.0,266.0 1484.0,290.0 1490.0,290.0 1490.0,266.0 1496.0,266.0 1496.0,290.0 1502.0,290.0 1502.0,266.0 1508.0,266.0 1508.0,290.0 1514.0,290.0 1514.0,266.0 1520.0,266.0 1520.0,290.0 1526.0,290.0 1526.0,266.0 1532.0,266.0 1532.0,290.0 1538.0,290.0 1538.0,266.0 1544.0,266.0 1544.0,290.0 1550.0,290.0 1550.0,266.0 1556.0,266.0 1556.0,290.0 1562.0,290.0 1562.0,266.0 1568.0,266.0 1568.0,290.0 1574.0,290.0 1574.0,266.0 1580.0,266.0 1580.0,290.0 1586.0,290.0 1586.0,266.0 1592.0,266.0 1592.0,290.0 1598.0,290.0 1598.0,266.0 1604.0,266.0 1604.0,290.0 1610.0,290.0 1610.0,266.0 1616.0,266.0 1616.0,290.0 1622.0,290.0 1622.0,266.0 1628.0,266.0 1628.0,290.0 1634.0,290.0 1634.0,266.0 1640.0,266.0 1640.0,290.0 1646.0,290.0 1646.0,266.0 1652.0,266.0 1652.0,290.0 1658.0,290.0 1658.0,266.0 1664.0,266.0 1664.0,290.0 1670.0,290.0 1670.0,266.0 1676.0,266.0 1676.0,290.0 1682.0,290.0 1682.0,266.0 1688.0,266.0 1688.0,290.0 1694.0,290.0 1694.0,266.0 1700.0,266.0 1700.0,290.0 1706.0,290.0 1706.0,266.0 1712.0,266.0 1712.0,290.0 1718.0,290.0 1718.0,266.0 1724.0,266.0 1724.0,290.0 1730.0,290.0 1730.0,266.0 1736.0,266.0 1736.0,290.0 1742.0,290.0 1742.0,266.0 1748.0,266.0 1748.0,290.0 1760.0,290.0 1760.0,266.0 1766.0,266.0 1766.0,290.0 1772.0,290.0 1772.0,266.0 1778.0,266.0 1778.0,290.0 1784.0,290.0 1784.0,266.0 1790.0,266.0 1790.0,290.0 1796.0,290.0 1796.0,266.0 1802.0,266.0 1802.0,290.0 1808.0,290.0 1808.0,266.0 1814.0,266.0 1814.0,290.0 1820.0,290.0 1820.0,266.0 1826.0,266.0 1826.0,290.0 1832.0,290.0 1832.0,266.0 1838.0,266.0 1838.0,290.0 1844.0,290.0 1844.0,266.0 1850.0,266.0 1850.0,290.0 1856.0,290.0 1856.0,266.0 1862.0,266.0 1862.0,290.0 1868.0,290.0 1868.0,266.0 1874.0,266.0 1874.0,290.0 1880.0,290.0 1880.0,266.0 1886.0,266.0 1886.0,290.0 1892.0,290.0 1892.0,266.0 1898.0,266.0 1898.0,290.0 1904.0,290.0 1904.0,266.0 1910.0,266.0 1910.0,290.0 1916.0,290.0 1916.0,266.0 1922.0,266.0 1922.0,290.0 1928.0,290.0 1928.0,266.0 1934.0,266.0 1934.0,290.0 1940.0,290.0 1940.0,266.0 1946.0,266.0 1946.0,290.0 1952.0,290.0 1952.0,266.0 1958.0,266.0 1958.0,290.0 1964.0,290.0 1964.0,266.0 1970.0,266.0 1970.0,290.0 1976.0,290.0 1976.0,266.0 1982.0,266.0 1982.0,290.0 1988.0,290.0 1988.0,266.0 1994.0,266.0 1994.0,290.0 2000.0,290.0 2000.0,266.0 2006.0,266.0 2006.0,290.0 2012.0,290.0 2012.0,266.0 2018.0,266.0 2018.0,290.0 2024.0,290.0 2024.0,266.0 2030.0,266.0 2030.0,290.0 2036.0,290.0 2036.0,266.0 2042.0,266.0 2042.0,290.0 2048.0,290.0 2048.0,266.0 2054.0,266.0 2054.0,290.0 2060.0,290.0 2060.0,266.0 2066.0,266.0 2066.0,290.0 2072.0,290.0 2072.0,266.0 2078.0,266.0 2078.0,290.0 2084.0,290.0 2084.0,266.0 2090.0,266.0 2090.0,290.0 2096.0,290.0 2096.0,266.0 2102.0,266.0 2102.0,290.0 2108.0,290.0 2108.0,266.0 2114.0,266.0 2114.0,290.0 2120.0,290.0 2120.0,266.0 2126.0,266.0 2126.0,290.0 2132.0,290.0 2132.0,266.0 2138.0,266.0 2138.0,290.0 2144.0,290.0 2144.0,266.0 2150.0,266.0 2150.0,290.0 2156.0,290.0 2156.0,266.0 2162.0,266.0 2162.0,290.0 2168.0,290.0 2168.0,266.0 2174.0,266.0 2174.0,290.0 2180.0,290.0 2180.0,266.0 2186.0,266.0 2186.0,290.0 2192.0,290.0 2192.0,266.0 2198.0,266.0 2198.0,290.0 2204.0,290.0 2204.0,266.0 2210.0,266.0 2210.0,290.0 2216.0,290.0 2216.0,266.0 2222.0,266.0 2222.0,290.0 2228.0,290.0 2228.0,266.0 2234.0,266.0 2234.0,290.0 2240.0,290.0 2240.0,266.0 2246.0,266.0 2246.0,290.0 2252.0,290.0 2252.0,266.0 2258.0,266.0 2258.0,290.0 2264.0,290.0 2264.0,266.0 2270.0,266.0 2270.0,290.0 2276.0,290.0 2276.0,266.0 2282.0,266.0 2282.0,290.0 2288.0,290.0 2288.0,266.0 2294.0,266.0 2294.0,290.0 2300.0,290.0 2300.0,266.0 2306.0,266.0 2306.0,290.0 2312.0,290.0 2312.0,266.0 2318.0,266.0 2318.0,290.0 2324.0,290.0 2324.0,266.0 2330.0,266.0 2330.0,290.0 2336.0,290.0 2336.0,266.0 2342.0,266.0 2342.0,290.0 2348.0,290.0 2348.0,266.0 2354.0,266.0 2354.0,290.0 2360.0,290.0 2360.0,266.0 2366.0,266.0 2366.0,290.0 2372.0,290.0 2372.0,266.0 2378.0,266.0 2378.0,290.0 2384.0,290.0 2384.0,266.0 2390.0,266.0 2390.0,290.0 2396.0,290.0 2396.0,266.0 2402.0,266.0 2402.0,290.0 2408.0,290.0 2408.0,266.0 2414.0,266.0 2414.0,290.0 2420.0,290.0 2420.0,266.0 2426.0,266.0 2426.0,290.0 2432.0,290.0 2432.0,266.0 2438.0,266.0 2438.0,290.0 2444.0,290.0 2444.0,266.0 2450.0,266.0 2450.0,290.0 2456.0,290.0 2456.0,266.0 2462.0,266.0 2462.0,290.0 2468.0,290.0 2468.0,266.0 2474.0,266.0 2474.0,290.0 2480.0,290.0 2480.0,266.0 2486.0,266.0 2486.0,290.0 2492.0,290.0 2492.0,266.0 2498.0,266.0 2498.0,290.0 2504.0,290.0 2504.0,266.0 2510.0,266.0 2510.0,290.0 2516.0,290.0 2516.0,266.0 2522.0,266.0 2522.0,290.0 2534.0,290.0 2534.0,266.0 2540.0,266.0 2540.0,290.0 2546.0,290.0 2546.0,266.0 2552.0,266.0 2552.0,290.0 2558.0,290.0 2558.0,266.0 2564.0,266.0 2564.0,290.0 2570.0,290.0 2570.0,266.0 2576.0,266.0 2576.0,290.0 2582.0,290.0 2582.0,266.0 2588.0,266.0 2588.0,290.0 2594.0,290.0 2594.0,266.0 2600.0,266.0 2600.0,290.0 2606.0,290.0 2606.0,266.0 2612.0,266.0 2612.0,290.0 2618.0,290.0 2618.0,266.0 2624.0,266.0 2624.0,290.0 2630.0,290.0 2630.0,266.0 2636.0,266.0 2636.0,290.0 2642.0,290.0 2642.0,266.0 2648.0,266.0 2648.0,290.0 2654.0,290.0 2654.0,266.0 2660.0,266.0 2660.0,290.0 2666.0,290.0 2666.0,266.0 2672.0,266.0 2672.0,290.0 2678.0,290.0 2678.0,266.0 2684.0,266.0 2684.0,290.0 2690.0,290.0 2690.0,266.0 2696.0,266.0 2696.0,290.0 2702.0,290.0 2702.0,266.0 2708.0,266.0 2708.0,290.0 2714.0,290.0 2714.0,266.0 2720.0,266.0 2720.0,290.0 2726.0,290.0 2726.0,266.0 2732.0,266.0 2732.0,290.0 2738.0,290.0 2738.0,266.0 2744.0,266.0 2744.0,290.0 2750.0,290.0 2750.0,266.0 2756.0,266.0 2756.0,290.0 2762.0,290.0 2762.0,266.0 2768.0,266.0 2768.0,290.0 2774.0,290.0 2774.0,266.0 2780.0,266.0 2780.0,290.0 2786.0,290.0 2786.0,266.0 2792.0,266.0 2792.0,290.0 2798.0,290.0 2798.0,266.0 2804.0,266.0 2804.0,290.0 2810.0,290.0 2810.0,266.0 2816.0,266.0 2816.0,290.0 2822.0,290.0 2822.0,266.0 2828.0,266.0 2828.0,290.0 2834.0,290.0 2834.0,266.0 2840.0,266.0 2840.0,290.0 2846.0,290.0 2846.0,266.0 2852.0,266.0 2852.0,290.0 2858.0,290.0 2858.0,266.0 2864.0,266.0 2864.0,290.0 2870.0,290.0 2870.0,266.0 2876.0,266.0 2876.0,290.0 2882.0,290.0 2882.0,266.0 2888.0,266.0 2888.0,290.0 2894.0,290.0 2894.0,266.0 2900.0,266.0 2900.0,290.0 2906.0,290.0 2906.0,266.0 2912.0,266.0 2912.0,290.0 2918.0,290.0 2918.0,266.0 2924.0,266.0 2924.0,290.0 2930.0,290.0 2930.0,266.0 2936.0,266.0 2936.0,290.0 2942.0,290.0 2942.0,266.0 2948.0,266.0 2948.0,290.0 2954.0,290.0 2954.0,266.0 2960.0,266.0 2960.0,290.0 2966.0,290.0 2966.0,266.0 2972.0,266.0 2972.0,290.0 2978.0,290.0 2978.0,266.0 2984.0,266.0 2984.0,290.0 2990.0,290.0 2990.0,266.0 2996.0,266.0 2996.0,290.0 3002.0,290.0 3002.0,266.0 3008.0,266.0 3008.0,290.0 3014.0,290.0 3014.0,266.0 3020.0,266.0 3020.0,290.0 3026.0,290.0 3026.0,266.0 3032.0,266.0 3032.0,290.0 3038.0,290.0 3038.0,266.0 3044.0,266.0 3044.0,290.0 3050.0,290.0 3050.0,266.0 3056.0,266.0 3056.0,290.0 3062.0,290.0 3062.0,266.0 3068.0,266.0 3068.0,290.0 3074.0,290.0 3074.0,266.0 3080.0,266.0 3080.0,290.0 3086.0,290.0 3086.0,266.0 3092.0,266.0 3092.0,290.0 3098.0,290.0 3098.0,266.0 3104.0,266.0 3104.0,290.0 3110.0,290.0 3110.0,266.0 3116.0,266.0 3116.0,290.0 3122.0,290.0 3122.0,266.0 3128.0,266.0 3128.0,290.0 3134.0,290.0 3134.0,266.0 3140.0,266.0 3140.0,290.0 3146.0,290.0 3146.0,266.0 3152.0,266.0 3152.0,290.0 3158.0,290.0 3158.0,266.0 3164.0,266.0 3164.0,290.0 3170.0,290.0 3170.0,266.0 3176.0,266.0 3176.0,290.0 3182.0,290.0 3182.0,266.0 3188.0,266.0 3188.0,290.0 3194.0,290.0 3194.0,266.0 3200.0,266.0 3200.0,290.0 3206.0,290.0 3206.0,266.0 3212.0,266.0 3212.0,290.0 3218.0,290.0 3218.0,266.0 3224.0,266.0 3224.0,290.0 3230.0,290.0 3230.0,266.0 3236.0,266.0 3236.0,290.0 3242.0,290.0 3242.0,266.0 3248.0,266.0 3248.0,290.0 3254.0,290.0 3254.0,266.0 3260.0,266.0 3260.0,290.0 3266.0,290.0 3266.0,266.0 3272.0,266.0 3272.0,290.0 3278.0,290.0 3278.0,266.0 3284.0,266.0 3284.0,290.0 3290.0,290.0 3290.0,266.0 3296.0,266.0 3296.0,290.0 3308.0,290.0 3308.0,266.0 3314.0,266.0 3314.0,290.0 3320.0,290.0 3320.0,266.0 3326.0,266.0 3326.0,290.0 3332.0,290.0 3332.0,266.0 3338.0,266.0 3338.0,290.0 3344.0,290.0 3344.0,266.0 3350.0,266.0 3350.0,290.0 3356.0,290.0 3356.0,266.0 3362.0,266.0 3362.0,290.0 3368.0,290.0 3368.0,266.0 3374.0,266.0 3374.0,290.0 3380.0,290.0 3380.0,266.0 3386.0,266.0 3386.0,290.0 3392.0,290.0 3392.0,266.0 3398.0,266.0 3398.0,290.0 3404.0,290.0 3404.0,266.0 3410.0,266.0 3410.0,290.0 3416.0,290.0 3416.0,266.0 3422.0,266.0 3422.0,290.0 3428.0,290.0 3428.0,266.0 3434.0,266.0 3434.0,290.0 3440.0,290.0 3440.0,266.0 3446.0,266.0 3446.0,290.0 3452.0,290.0 3452.0,266.0 3458.0,266.0 3458.0,290.0 3464.0,290.0 3464.0,266.0 3470.0,266.0 3470.0,290.0 3476.0,290.0 3476.0,266.0 3482.0,266.0 3482.0,290.0 3488.0,290.0 3488.0,266.0 3494.0,266.0 3494.0,290.0 3500.0,290.0 3500.0,266.0 3506.0,266.0 3506.0,290.0 3512.0,290.0 3512.0,266.0 3518.0,266.0 3518.0,290.0 3524.0,290.0 3524.0,266.0 3530.0,266.0 3530.0,290.0 3536.0,290.0 3536.0,266.0 3542.0,266.0 3542.0,290.0 3548.0,290.0 3548.0,266.0 3554.0,266.0 3554.0,290.0 3560.0,290.0 3560.0,266.0 3566.0,266.0 3566.0,290.0 3572.0,290.0 3572.0,266.0 3578.0,266.0 3578.0,290.0 3584.0,290.0 3584.0,266.0 3590.0,266.0 3590.0,290.0 3596.0,290.0 3596.0,266.0 3602.0,266.0 3602.0,290.0 3608.0,290.0 3608.0,266.0 3614.0,266.0 3614.0,290.0 3620.0,290.0 3620.0,266.0 3626.0,266.0 3626.0,290.0 3632.0,290.0 3632.0,266.0 3638.0,266.0 3638.0,290.0 3644.0,290.0 3644.0,266.0 3650.0,266.0 3650.0,290.0 3656.0,290.0 3656.0,266.0 3662.0,266.0 3662.0,290.0 3668.0,290.0 3668.0,266.0 3674.0,266.0 3674.0,290.0 3680.0,290.0 3680.0,266.0 3686.0,266.0 3686.0,290.0 3692.0,290.0 3692.0,266.0 3698.0,266.0 3698.0,290.0 3704.0,290.0 3704.0,266.0 3710.0,266.0 3710.0,290.0 3716.0,290.0 3716.0,266.0 3722.0,266.0 3722.0,290.0 3728.0,290.0 3728.0,266.0 3734.0,266.0 3734.0,290.0 3740.0,290.0 3740.0,266.0 3746.0,266.0 3746.0,290.0 3752.0,290.0 3752.0,266.0 3758.0,266.0 3758.0,290.0 3764.0,290.0 3764.0,266.0 3770.0,266.0 3770.0,290.0 3776.0,290.0 3776.0,266.0 3782.0,266.0 3782.0,290.0 3788.0,290.0 3788.0,266.0 3794.0,266.0 3794.0,290.0 3800.0,290.0 3800.0,266.0 3806.0,266.0 3806.0,290.0 3812.0,290.0 3812.0,266.0 3818.0,266.0 3818.0,290.0 3824.0,290.0 3824.0,266.0 3830.0,266.0 3830.0,290.0 3836.0,290.0 3836.0,266.0 3842.0,266.0 3842.0,290.0 3848.0,290.0 3848.0,266.0 3854.0,266.0 3854.0,290.0 3860.0,290.0 3860.0,266.0 3866.0,266.0 3866.0,290.0 3872.0,290.0 3872.0,266.0 3878.0,266.0 3878.0,290.0 3884.0,290.0 3884.0,266.0 3890.0,266.0 3890.0,290.0 3896.0,290.0 3896.0,266.0 3902.0,266.0 3902.0,290.0 3908.0,290.0 3908.0,266.0 3914.0,266.0 3914.0,290.0 3920.0,290.0 3920.0,266.0 3926.0,266.0 3926.0,290.0 3932.0,290.0 3932.0,266.0 3938.0,266.0 3938.0,290.0 3944.0,290.0 3944.0,266.0 3950.0,266.0 3950.0,290.0 3956.0,290.0 3956.0,266.0 3962.0,266.0 3962.0,290.0 3968.0,290.0 3968.0,266.0 3974.0,266.0 3974.0,290.0 1364.0,290.0" stroke="#1a202c" stroke-width="1.5" /><text font-family="monospace" font-size="12px" x="10" y="320.0">spi0.mosi</text><polyline fill="none" points="110.0,330.0 110.0,330.0 194.0,330.0 194.0,306.0 218.0,306.0 218.0,330.0 230.0,330.0 230.0,306.0 242.0,306.0 242.0,330.0 254.0,330.0 254.0,306.0 266.0,306.0 266.0,330.0 278.0,330.0 278.0,306.0 290.0,306.0 290.0,330.0 302.0,330.0 302.0,306.0 314.0,306.0 314.0,330.0 362.0,330.0 362.0,306.0 494.0,306.0 494.0,330.0 974.0,330.0 974.0,330.0" stroke="#2b6cb0" stroke-width="1.5" /><polyline fill="none" points="974.0,330.0 974.0,330.0 980.0,330.0 980.0,330.0" stroke="#1a202c" stroke-width="1.5" /><polyline fill="none" points="980.0,330.0 980.0,330.0 992.0,330.0 992.0,306.0 1028.0,306.0 1028.0,330.0 1040.0,330.0 1040.0,306.0 1076.0,306.0 1076.0,330.0 1364.0,330.0" stroke="#2b6cb0" stroke-width="1.5" /><text font-family="monospace" font-size="12px" x="10" y="360.0">spi0.miso</text><polyline fill="none" points="110.0,370.0 110.0,370.0 398.0,370.0 398.0,346.0 494.0,346.0 494.0,370.0 578.0,370.0 578.0,346.0 590.0,346.0 590.0,370.0 866.0,370.0 866.0,346.0 890.0,346.0 890.0,370.0 902.0,370.0 902.0,346.0 914.0,346.0 914.0,370.0 926.0,370.0 926.0,346.0 938.0,346.0 938.0,370.0 950.0,370.0 950.0,346.0 962.0,346.0 962.0,370.0 974.0,370.0 974.0,370.0" stroke="#38a169" stroke-width="1.5" /><polyline fill="none" points="974.0,370.0 974.0,370.0 980.0,370.0 980.0,370.0" stroke="#1a202c" stroke-width="1.5" /><polyline fill="none" points="980.0,370.0 980.0,370.0 1364.0,370.0" stroke="#38a169" stroke-width="1.5" /><text font-family="monospace" font-size="12px" x="10" y="400.0">spi0.cs</text><polyline fill="none" points="110.0,410.0 974.0,410.0 974.0,386.0 980.0,386.0 980.0,410.0 1748.0,410.0 1748.0,386.0 1754.0,386.0 1754.0,410.0 2522.0,410.0 2522.0,386.0 2528.0,386.0 2528.0,410.0 3296.0,410.0 3296.0,386.0 3302.0,386.0 3302.0,410.0 3974.0,410.0 3974.0,386.0 1364.0,386.0" stroke="#1a202c" stroke-width="1.5" /><text fill="#6b46c1" font-family="monospace" font-size="10px" x="10" y="433.6">bitorder</text><rect fill="#6b46c1" fill-opacity="0.25" height="20" stroke="#6b46c1" stroke-width="0.5" width="864.0" x="110.0" y="420" /><rect fill="#6b46c1" fill-opacity="0.25" height="20" stroke="#6b46c1" stroke-width="0.5" width="384.0" x="980.0" y="420" /><text fill="#6b46c1" font-family="monospace" font-size="9px" x="982.0" y="434.8">msb</text><text fill="#dd6b20" font-family="monospace" font-size="10px" x="10" y="457.6">field</text><rect fill="#dd6b20" fill-opacity="0.25" height="20" stroke="#dd6b20" stroke-width="0.5" width="96.0" x="110.0" y="444" /><text fill="#dd6b20" font-family="monospace" font-size="9px" x="112.0" y="458.8">ARG=0x000001AA</text><rect fill="#dd6b20" fill-opacity="0.25" height="20" stroke="#dd6b20" stroke-width="0.5" width="96.0" x="206.0" y="444" /><text fill="#dd6b20" font-family="monospace" font-size="9px" x="208.0" y="458.8">ARG=0x000001AA</text><rect fill="#dd6b20" fill-opacity="0.25" height="20" stroke="#dd6b20" stroke-width="0.5" width="96.0" x="302.0" y="444" /><text fill="#dd6b20" font-family="monospace" font-size="9px" x="304.0" y="458.8">CRC7</text><rect fill="#dd6b20" fill-opacity="0.25" height="20" stroke="#dd6b20" stroke-width="0.5" width="96.0" x="398.0" y="444" /><text fill="#dd6b20" font-family="monospace" font-size="9px" x="400.0" y="458.8">NCR</text><rect fill="#dd6b20" fill-opacity="0.25" height="20" stroke="#dd6b20" stroke-width="0.5" width="96.0" x="494.0" y="444" /><text fill="#dd6b20" font-family="monospace" font-size="9px" x="496.0" y="458.8">R7</text><rect fill="#dd6b20" fill-opacity="0.25" height="20" stroke="#dd6b20" stroke-width="0.5" width="96.0" x="590.0" y="444" /><text fill="#dd6b20" font-family="monospace" font-size="9px" x="592.0" y="458.8">R7</text><rect fill="#dd6b20" fill-opacity="0.25" height="20" stroke="#dd6b20" stroke-width="0.5" width="96.0" x="686.0" y="444" /><text fill="#dd6b20" font-family="monospace" font-size="9px" x="688.0" y="458.8">R7</text><rect fill="#dd6b20" fill-opacity="0.25" height="20" stroke="#dd6b20" stroke-width="0.5" width="96.0" x="782.0" y="444" /><text fill="#dd6b20" font-family="monospace" font-size="9px" x="784.0" y="458.8">R7</text><rect fill="#dd6b20" fill-opacity="0.25" height="20" stroke="#dd6b20" stroke-width="0.5" width="96.0" x="878.0" y="444" /><text fill="#dd6b20" font-family="monospace" font-size="9px" x="880.0" y="458.8">R7</text><rect fill="#dd6b20" fill-opacity="0.25" height="20" stroke="#dd6b20" stroke-width="0.5" width="96.0" x="980.0" y="444" /><text fill="#dd6b20" font-family="monospace" font-size="9px" x="982.0" y="458.8">CMD55</text><rect fill="#dd6b20" fill-opacity="0.25" height="20" stroke="#dd6b20" stroke-width="0.5" width="96.0" x="1076.0" y="444" /><text fill="#dd6b20" font-family="monospace" font-size="9px" x="1078.0" y="458.8">ARG=0x00000000</text><rect fill="#dd6b20" fill-opacity="0.25" height="20" stroke="#dd6b20" stroke-width="0.5" width="96.0" x="1172.0" y="444" /><text fill="#dd6b20" font-family="monospace" font-size="9px" x="1174.0" y="458.8">ARG=0x00000000</text><rect fill="#dd6b20" fill-opacity="0.25" height="20" stroke="#dd6b20" stroke-width="0.5" width="96.0" x="1268.0" y="444" /><text fill="#dd6b20" font-family="monospace" font-size="9px" x="1270.0" y="458.8">ARG=0x00000000</text><text fill="#4a5568" font-family="monospace" font-size="10px" x="10" y="485">chunk 3/5 — samples 2017-3066  (201.7-306.7 µs)</text><rect fill="#edf2f7" height="160" width="96.0" x="110.0" y="490" /><rect fill="#e2e8f0" height="160" width="96.0" x="206.0" y="490" /><rect fill="#edf2f7" height="160" width="96.0" x="302.0" y="490" /><rect fill="#e2e8f0" height="160" width="96.0" x="398.0" y="490" /><rect fill="#edf2f7" height="160" width="96.0" x="500.0" y="490" /><rect fill="#e2e8f0" height="160" width="96.0" x="596.0" y="490" /><rect fill="#edf2f7" height="160" width="96.0" x="692.0" y="490" /><rect fill="#e2e8f0" height="160" width="96.0" x="788.0" y="490" /><rect fill="#edf2f7" height="160" width="96.0" x="884.0" y="490" /><rect fill="#e2e8f0" height="160" width="96.0" x="980.0" y="490" /><rect fill="#edf2f7" height="160" width="96.0" x="1076.0" y="490" /><rect fill="#e2e8f0" height="160" width="96.0" x="1172.0" y="490" /><rect fill="#edf2f7" height="160" width="96.0" x="1274.0" y="490" /><text font-family="monospace" font-size="12px" x="10" y="512.0">spi0.sclk</text><polyline fill="none" points="110.0,522.0 116.0,522.0 116.0,498.0 122.0,498.0 122.0,522.0 128.0,522.0 128.0,498.0 134.0,498.0 134.0,522.0 140.0,522.0 140.0,498.0 146.0,498.0 146.0,522.0 152.0,522.0 152.0,498.0 158.0,498.0 158.0,522.0 164.0,522.0 164.0,498.0 170.0,498.0 170.0,522.0 176.0,522.0 176.0,498.0 182.0,498.0 182.0,522.0 188.0,522.0 188.0,498.0 194.0,498.0 194.0,522.0 200.0,522.0 200.0,498.0 206.0,498.0 206.0,522.0 212.0,522.0 212.0,498.0 218.0,498.0 218.0,522.0 224.0,522.0 224.0,498.0 230.0,498.0 230.0,522.0 236.0,522.0 236.0,498.0 242.0,498.0 242.0,522.0 248.0,522.0 248.0,498.0 254.0,498.0 254.0,522.0 260.0,522.0 260.0,498.0 266.0,498.0 266.0,522.0 272.0,522.0 272.0,498.0 278.0,498.0 278.0,522.0 284.0,522.0 284.0,498.0 290.0,498.0 290.0,522.0 296.0,522.0 296.0,498.0 302.0,498.0 302.0,522.0 308.0,522.0 308.0,498.0 314.0,498.0 314.0,522.0 320.0,522.0 320.0,498.0 326.0,498.0 326.0,522.0 332.0,522.0 332.0,498.0 338.0,498.0 338.0,522.0 344.0,522.0 344.0,498.0 350.0,498.0 350.0,522.0 356.0,522.0 356.0,498.0 362.0,498.0 362.0,522.0 368.0,522.0 368.0,498.0 374.0,498.0 374.0,522.0 380.0,522.0 380.0,498.0 386.0,498.0 386.0,522.0 392.0,522.0 392.0,498.0 398.0,498.0 398.0,522.0 404.0,522.0 404.0,498.0 410.0,498.0 410.0,522.0 416.0,522.0 416.0,498.0 422.0,498.0 422.0,522.0 428.0,522.0 428.0,498.0 434.0,498.0 434.0,522.0 440.0,522.0 440.0,498.0 446.0,498.0 446.0,522.0 452.0,522.0 452.0,498.0 458.0,498.0 458.0,522.0 464.0,522.0 464.0,498.0 470.0,498.0 470.0,522.0 476.0,522.0 476.0,498.0 482.0,498.0 482.0,522.0 488.0,522.0 488.0,498.0 494.0,498.0 494.0,522.0 506.0,522.0 506.0,498.0 512.0,498.0 512.0,522.0 518.0,522.0 518.0,498.0 524.0,498.0 524.0,522.0 530.0,522.0 530.0,498.0 536.0,498.0 536.0,522.0 542.0,522.0 542.0,498.0 548.0,498.0 548.0,522.0 554.0,522.0 554.0,498.0 560.0,498.0 560.0,522.0 566.0,522.0 566.0,498.0 572.0,498.0 572.0,522.0 578.0,522.0 578.0,498.0 584.0,498.0 584.0,522.0 590.0,522.0 590.0,498.0 596.0,498.0 596.0,522.0 602.0,522.0 602.0,498.0 608.0,498.0 608.0,522.0 614.0,522.0 614.0,498.0 620.0,498.0 620.0,522.0 626.0,522.0 626.0,498.0 632.0,498.0 632.0,522.0 638.0,522.0 638.0,498.0 644.0,498.0 644.0,522.0 650.0,522.0 650.0,498.0 656.0,498.0 656.0,522.0 662.0,522.0 662.0,498.0 668.0,498.0 668.0,522.0 674.0,522.0 674.0,498.0 680.0,498.0 680.0,522.0 686.0,522.0 686.0,498.0 692.0,498.0 692.0,522.0 698.0,522.0 698.0,498.0 704.0,498.0 704.0,522.0 710.0,522.0 710.0,498.0 716.0,498.0 716.0,522.0 722.0,522.0 722.0,498.0 728.0,498.0 728.0,522.0 734.0,522.0 734.0,498.0 740.0,498.0 740.0,522.0 746.0,522.0 746.0,498.0 752.0,498.0 752.0,522.0 758.0,522.0 758.0,498.0 764.0,498.0 764.0,522.0 770.0,522.0 770.0,498.0 776.0,498.0 776.0,522.0 782.0,522.0 782.0,498.0 788.0,498.0 788.0,522.0 794.0,522.0 794.0,498.0 800.0,498.0 800.0,522.0 806.0,522.0 806.0,498.0 812.0,498.0 812.0,522.0 818.0,522.0 818.0,498.0 824.0,498.0 824.0,522.0 830.0,522.0 830.0,498.0 836.0,498.0 836.0,522.0 842.0,522.0 842.0,498.0 848.0,498.0 848.0,522.0 854.0,522.0 854.0,498.0 860.0,498.0 860.0,522.0 866.0,522.0 866.0,498.0 872.0,498.0 872.0,522.0 878.0,522.0 878.0,498.0 884.0,498.0 884.0,522.0 890.0,522.0 890.0,498.0 896.0,498.0 896.0,522.0 902.0,522.0 902.0,498.0 908.0,498.0 908.0,522.0 914.0,522.0 914.0,498.0 920.0,498.0 920.0,522.0 926.0,522.0 926.0,498.0 932.0,498.0 932.0,522.0 938.0,522.0 938.0,498.0 944.0,498.0 944.0,522.0 950.0,522.0 950.0,498.0 956.0,498.0 956.0,522.0 962.0,522.0 962.0,498.0 968.0,498.0 968.0,522.0 974.0,522.0 974.0,498.0 980.0,498.0 980.0,522.0 986.0,522.0 986.0,498.0 992.0,498.0 992.0,522.0 998.0,522.0 998.0,498.0 1004.0,498.0 1004.0,522.0 1010.0,522.0 1010.0,498.0 1016.0,498.0 1016.0,522.0 1022.0,522.0 1022.0,498.0 1028.0,498.0 1028.0,522.0 1034.0,522.0 1034.0,498.0 1040.0,498.0 1040.0,522.0 1046.0,522.0 1046.0,498.0 1052.0,498.0 1052.0,522.0 1058.0,522.0 1058.0,498.0 1064.0,498.0 1064.0,522.0 1070.0,522.0 1070.0,498.0 1076.0,498.0 1076.0,522.0 1082.0,522.0 1082.0,498.0 1088.0,498.0 1088.0,522.0 1094.0,522.0 1094.0,498.0 1100.0,498.0 1100.0,522.0 1106.0,522.0 1106.0,498.0 1112.0,498.0 1112.0,522.0 1118.0,522.0 1118.0,498.0 1124.0,498.0 1124.0,522.0 1130.0,522.0 1130.0,498.0 1136.0,498.0 1136.0,522.0 1142.0,522.0 1142.0,498.0 1148.0,498.0 1148.0,522.0 1154.0,522.0 1154.0,498.0 1160.0,498.0 1160.0,522.0 1166.0,522.0 1166.0,498.0 1172.0,498.0 1172.0,522.0 1178.0,522.0 1178.0,498.0 1184.0,498.0 1184.0,522.0 1190.0,522.0 1190.0,498.0 1196.0,498.0 1196.0,522.0 1202.0,522.0 1202.0,498.0 1208.0,498.0 1208.0,522.0 1214.0,522.0 1214.0,498.0 1220.0,498.0 1220.0,522.0 1226.0,522.0 1226.0,498.0 1232.0,498.0 1232.0,522.0 1238.0,522.0 1238.0,498.0 1244.0,498.0 1244.0,522.0 1250.0,522.0 1250.0,498.0 1256.0,498.0 1256.0,522.0 1262.0,522.0 1262.0,498.0 1268.0,498.0 1268.0,522.0 1280.0,522.0 1280.0,498.0 1286.0,498.0 1286.0,522.0 1292.0,522.0 1292.0,498.0 1298.0,498.0 1298.0,522.0 1304.0,522.0 1304.0,498.0 1310.0,498.0 1310.0,522.0 1316.0,522.0 1316.0,498.0 1322.0,498.0 1322.0,522.0 1328.0,522.0 1328.0,498.0 1334.0,498.0 1334.0,522.0 1340.0,522.0 1340.0,498.0 1346.0,498.0 1346.0,522.0 1352.0,522.0 1352.0,498.0 1358.0,498.0 1358.0,522.0 1364.0,522.0 1364.0,498.0 1370.0,498.0 1370.0,522.0 1376.0,522.0 1376.0,498.0 1382.0,498.0 1382.0,522.0 1388.0,522.0 1388.0,498.0 1394.0,498.0 1394.0,522.0 1400.0,522.0 1400.0,498.0 1406.0,498.0 1406.0,522.0 1412.0,522.0 1412.0,498.0 1418.0,498.0 1418.0,522.0 1424.0,522.0 1424.0,498.0 1430.0,498.0 1430.0,522.0 1436.0,522.0 1436.0,498.0 1442.0,498.0 1442.0,522.0 1448.0,522.0 1448.0,498.0 1454.0,498.0 1454.0,522.0 1460.0,522.0 1460.0,498.0 1466.0,498.0 1466.0,522.0 1472.0,522.0 1472.0,498.0 1478.0,498.0 1478.0,522.0 1484.0,522.0 1484.0,498.0 1490.0,498.0 1490.0,522.0 1496.0,522.0 1496.0,498.0 1502.0,498.0 1502.0,522.0 1508.0,522.0 1508.0,498.0 1514.0,498.0 1514.0,522.0 1520.0,522.0 1520.0,498.0 1526.0,498.0 1526.0,522.0 1532.0,522.0 1532.0,498.0 1538.0,498.0 1538.0,522.0 1544.0,522.0 1544.0,498.0 1550.0,498.0 1550.0,522.0 1556.0,522.0 1556.0,498.0 1562.0,498.0 1562.0,522.0 1568.0,522.0 1568.0,498.0 1574.0,498.0 1574.0,522.0 1580.0,522.0 1580.0,498.0 1586.0,498.0 1586.0,522.0 1592.0,522.0 1592.0,498.0 1598.0,498.0 1598.0,522.0 1604.0,522.0 1604.0,498.0 1610.0,498.0 1610.0,522.0 1616.0,522.0 1616.0,498.0 1622.0,498.0 1622.0,522.0 1628.0,522.0 1628.0,498.0 1634.0,498.0 1634.0,522.0 1640.0,522.0 1640.0,498.0 1646.0,498.0 1646.0,522.0 1652.0,522.0 1652.0,498.0 1658.0,498.0 1658.0,522.0 1664.0,522.0 1664.0,498.0 1670.0,498.0 1670.0,522.0 1676.0,522.0 1676.0,498.0 1682.0,498.0 1682.0,522.0 1688.0,522.0 1688.0,498.0 1694.0,498.0 1694.0,522.0 1700.0,522.0 1700.0,498.0 1706.0,498.0 1706.0,522.0 1712.0,522.0 1712.0,498.0 1718.0,498.0 1718.0,522.0 1724.0,522.0 1724.0,498.0 1730.0,498.0 1730.0,522.0 1736.0,522.0 1736.0,498.0 1742.0,498.0 1742.0,522.0 1748.0,522.0 1748.0,498.0 1754.0,498.0 1754.0,522.0 1760.0,522.0 1760.0,498.0 1766.0,498.0 1766.0,522.0 1772.0,522.0 1772.0,498.0 1778.0,498.0 1778.0,522.0 1784.0,522.0 1784.0,498.0 1790.0,498.0 1790.0,522.0 1796.0,522.0 1796.0,498.0 1802.0,498.0 1802.0,522.0 1808.0,522.0 1808.0,498.0 1814.0,498.0 1814.0,522.0 1820.0,522.0 1820.0,498.0 1826.0,498.0 1826.0,522.0 1832.0,522.0 1832.0,498.0 1838.0,498.0 1838.0,522.0 1844.0,522.0 1844.0,498.0 1850.0,498.0 1850.0,522.0 1856.0,522.0 1856.0,498.0 1862.0,498.0 1862.0,522.0 1868.0,522.0 1868.0,498.0 1874.0,498.0 1874.0,522.0 1880.0,522.0 1880.0,498.0 1886.0,498.0 1886.0,522.0 1892.0,522.0 1892.0,498.0 1898.0,498.0 1898.0,522.0 1904.0,522.0 1904.0,498.0 1910.0,498.0 1910.0,522.0 1916.0,522.0 1916.0,498.0 1922.0,498.0 1922.0,522.0 1928.0,522.0 1928.0,498.0 1934.0,498.0 1934.0,522.0 1940.0,522.0 1940.0,498.0 1946.0,498.0 1946.0,522.0 1952.0,522.0 1952.0,498.0 1958.0,498.0 1958.0,522.0 1964.0,522.0 1964.0,498.0 1970.0,498.0 1970.0,522.0 1976.0,522.0 1976.0,498.0 1982.0,498.0 1982.0,522.0 1988.0,522.0 1988.0,498.0 1994.0,498.0 1994.0,522.0 2000.0,522.0 2000.0,498.0 2006.0,498.0 2006.0,522.0 2012.0,522.0 2012.0,498.0 2018.0,498.0 2018.0,522.0 2024.0,522.0 2024.0,498.0 2030.0,498.0 2030.0,522.0 2036.0,522.0 2036.0,498.0 2042.0,498.0 2042.0,522.0 2054.0,522.0 2054.0,498.0 2060.0,498.0 2060.0,522.0 2066.0,522.0 2066.0,498.0 2072.0,498.0 2072.0,522.0 2078.0,522.0 2078.0,498.0 2084.0,498.0 2084.0,522.0 2090.0,522.0 2090.0,498.0 2096.0,498.0 2096.0,522.0 2102.0,522.0 2102.0,498.0 2108.0,498.0 2108.0,522.0 2114.0,522.0 2114.0,498.0 2120.0,498.0 2120.0,522.0 2126.0,522.0 2126.0,498.0 2132.0,498.0 2132.0,522.0 2138.0,522.0 2138.0,498.0 2144.0,498.0 2144.0,522.0 2150.0,522.0 2150.0,498.0 2156.0,498.0 2156.0,522.0 2162.0,522.0 2162.0,498.0 2168.0,498.0 2168.0,522.0 2174.0,522.0 2174.0,498.0 2180.0,498.0 2180.0,522.0 2186.0,522.0 2186.0,498.0 2192.0,498.0 2192.0,522.0 2198.0,522.0 2198.0,498.0 2204.0,498.0 2204.0,522.0 2210.0,522.0 2210.0,498.0 2216.0,498.0 2216.0,522.0 2222.0,522.0 2222.0,498.0 2228.0,498.0 2228.0,522.0 2234.0,522.0 2234.0,498.0 2240.0,498.0 2240.0,522.0 2246.0,522.0 2246.0,498.0 2252.0,498.0 2252.0,522.0 2258.0,522.0 2258.0,498.0 2264.0,498.0 2264.0,522.0 2270.0,522.0 2270.0,498.0 2276.0,498.0 2276.0,522.0 2282.0,522.0 2282.0,498.0 2288.0,498.0 2288.0,522.0 2294.0,522.0 2294.0,498.0 2300.0,498.0 2300.0,522.0 2306.0,522.0 2306.0,498.0 2312.0,498.0 2312.0,522.0 2318.0,522.0 2318.0,498.0 2324.0,498.0 2324.0,522.0 2330.0,522.0 2330.0,498.0 2336.0,498.0 2336.0,522.0 2342.0,522.0 2342.0,498.0 2348.0,498.0 2348.0,522.0 2354.0,522.0 2354.0,498.0 2360.0,498.0 2360.0,522.0 2366.0,522.0 2366.0,498.0 2372.0,498.0 2372.0,522.0 2378.0,522.0 2378.0,498.0 2384.0,498.0 2384.0,522.0 2390.0,522.0 2390.0,498.0 2396.0,498.0 2396.0,522.0 2402.0,522.0 2402.0,498.0 2408.0,498.0 2408.0,522.0 2414.0,522.0 2414.0,498.0 2420.0,498.0 2420.0,522.0 2426.0,522.0 2426.0,498.0 2432.0,498.0 2432.0,522.0 2438.0,522.0 2438.0,498.0 2444.0,498.0 2444.0,522.0 2450.0,522.0 2450.0,498.0 2456.0,498.0 2456.0,522.0 2462.0,522.0 2462.0,498.0 2468.0,498.0 2468.0,522.0 2474.0,522.0 2474.0,498.0 2480.0,498.0 2480.0,522.0 2486.0,522.0 2486.0,498.0 2492.0,498.0 2492.0,522.0 2498.0,522.0 2498.0,498.0 2504.0,498.0 2504.0,522.0 2510.0,522.0 2510.0,498.0 2516.0,498.0 2516.0,522.0 2522.0,522.0 2522.0,498.0 2528.0,498.0 2528.0,522.0 2534.0,522.0 2534.0,498.0 2540.0,498.0 2540.0,522.0 2546.0,522.0 2546.0,498.0 2552.0,498.0 2552.0,522.0 2558.0,522.0 2558.0,498.0 2564.0,498.0 2564.0,522.0 2570.0,522.0 2570.0,498.0 2576.0,498.0 2576.0,522.0 2582.0,522.0 2582.0,498.0 2588.0,498.0 2588.0,522.0 2594.0,522.0 2594.0,498.0 2600.0,498.0 2600.0,522.0 2606.0,522.0 2606.0,498.0 2612.0,498.0 2612.0,522.0 2618.0,522.0 2618.0,498.0 2624.0,498.0 2624.0,522.0 2630.0,522.0 2630.0,498.0 2636.0,498.0 2636.0,522.0 2642.0,522.0 2642.0,498.0 2648.0,498.0 2648.0,522.0 2654.0,522.0 2654.0,498.0 2660.0,498.0 2660.0,522.0 2666.0,522.0 2666.0,498.0 2672.0,498.0 2672.0,522.0 2678.0,522.0 2678.0,498.0 2684.0,498.0 2684.0,522.0 2690.0,522.0 2690.0,498.0 2696.0,498.0 2696.0,522.0 2702.0,522.0 2702.0,498.0 2708.0,498.0 2708.0,522.0 2714.0,522.0 2714.0,498.0 2720.0,498.0 2720.0,522.0 1370.0,522.0" stroke="#1a202c" stroke-width="1.5" /><text font-family="monospace" font-size="12px" x="10" y="552.0">spi0.mosi</text><polyline fill="none" points="110.0,562.0 110.0,562.0 218.0,562.0 218.0,538.0 242.0,538.0 242.0,562.0 266.0,562.0 266.0,538.0 278.0,538.0 278.0,562.0 290.0,562.0 290.0,538.0 398.0,538.0 398.0,562.0 494.0,562.0 494.0,562.0" stroke="#2b6cb0" stroke-width="1.5" /><polyline fill="none" points="494.0,562.0 494.0,562.0 500.0,562.0 500.0,562.0" stroke="#1a202c" stroke-width="1.5" /><polyline fill="none" points="500.0,562.0 500.0,562.0 512.0,562.0 512.0,538.0 536.0,538.0 536.0,562.0 548.0,562.0 548.0,538.0 560.0,538.0 560.0,562.0 584.0,562.0 584.0,538.0 596.0,538.0 596.0,562.0 608.0,562.0 608.0,538.0 620.0,538.0 620.0,562.0 992.0,562.0 992.0,538.0 1028.0,538.0 1028.0,562.0 1040.0,562.0 1040.0,538.0 1172.0,538.0 1172.0,562.0 1268.0,562.0 1268.0,562.0" stroke="#2b6cb0" stroke-width="1.5" /><polyline fill="none" points="1268.0,562.0 1268.0,562.0 1274.0,562.0 1274.0,562.0" stroke="#1a202c" stroke-width="1.5" /><polyline fill="none" points="1274.0,562.0 1274.0,562.0 1286.0,562.0 1286.0,538.0 1298.0,538.0 1298.0,562.0 1310.0,562.0 1310.0,538.0 1322.0,538.0 1322.0,562.0 1358.0,562.0 1358.0,538.0 1370.0,538.0" stroke="#2b6cb0" stroke-width="1.5" /><text font-family="monospace" font-size="12px" x="10" y="592.0">spi0.miso</text><polyline fill="none" points="110.0,602.0 110.0,602.0 302.0,602.0 302.0,578.0 398.0,578.0 398.0,602.0 482.0,602.0 482.0,578.0 494.0,578.0 494.0,578.0" stroke="#38a169" stroke-width="1.5" /><polyline fill="none" points="494.0,578.0 494.0,578.0 500.0,578.0 500.0,578.0" stroke="#1a202c" stroke-width="1.5" /><polyline fill="none" points="500.0,578.0 500.0,602.0 1076.0,602.0 1076.0,578.0 1172.0,578.0 1172.0,602.0 1268.0,602.0 1268.0,602.0" stroke="#38a169" stroke-width="1.5" /><polyline fill="none" points="1268.0,602.0 1268.0,602.0 1274.0,602.0 1274.0,602.0" stroke="#1a202c" stroke-width="1.5" /><polyline fill="none" points="1274.0,602.0 1274.0,602.0 1370.0,602.0" stroke="#38a169" stroke-width="1.5" /><text font-family="monospace" font-size="12px" x="10" y="632.0">spi0.cs</text><polyline fill="none" points="110.0,642.0 494.0,642.0 494.0,618.0 500.0,618.0 500.0,642.0 1268.0,642.0 1268.0,618.0 1274.0,618.0 1274.0,642.0 2042.0,642.0 2042.0,618.0 2048.0,618.0 2048.0,642.0 2720.0,642.0 2720.0,618.0 1370.0,618.0" stroke="#1a202c" stroke-width="1.5" /><text fill="#6b46c1" font-family="monospace" font-size="10px" x="10" y="665.6">bitorder</text><rect fill="#6b46c1" fill-opacity="0.25" height="20" stroke="#6b46c1" stroke-width="0.5" width="384.0" x="110.0" y="652" /><rect fill="#6b46c1" fill-opacity="0.25" height="20" stroke="#6b46c1" stroke-width="0.5" width="768.0" x="500.0" y="652" /><text fill="#6b46c1" font-family="monospace" font-size="9px" x="502.0" y="666.8">msb</text><rect fill="#6b46c1" fill-opacity="0.25" height="20" stroke="#6b46c1" stroke-width="0.5" width="96.0" x="1274.0" y="652" /><text fill="#6b46c1" font-family="monospace" font-size="9px" x="1276.0" y="666.8">msb</text><text fill="#dd6b20" font-family="monospace" font-size="10px" x="10" y="689.6">field</text><rect fill="#dd6b20" fill-opacity="0.25" height="20" stroke="#dd6b20" stroke-width="0.5" width="96.0" x="110.0" y="676" /><text fill="#dd6b20" font-family="monospace" font-size="9px" x="112.0" y="690.8">ARG=0x00000000</text><rect fill="#dd6b20" fill-opacity="0.25" height="20" stroke="#dd6b20" stroke-width="0.5" width="96.0" x="206.0" y="676" /><text fill="#dd6b20" font-family="monospace" font-size="9px" x="208.0" y="690.8">CRC7</text><rect fill="#dd6b20" fill-opacity="0.25" height="20" stroke="#dd6b20" stroke-width="0.5" width="96.0" x="302.0" y="676" /><text fill="#dd6b20" font-family="monospace" font-size="9px" x="304.0" y="690.8">NCR</text><rect fill="#dd6b20" fill-opacity="0.25" height="20" stroke="#dd6b20" stroke-width="0.5" width="96.0" x="398.0" y="676" /><text fill="#dd6b20" font-family="monospace" font-size="9px" x="400.0" y="690.8">R1</text><rect fill="#dd6b20" fill-opacity="0.25" height="20" stroke="#dd6b20" stroke-width="0.5" width="96.0" x="500.0" y="676" /><text fill="#dd6b20" font-family="monospace" font-size="9px" x="502.0" y="690.8">CMD41</text><rect fill="#dd6b20" fill-opacity="0.25" height="20" stroke="#dd6b20" stroke-width="0.5" width="96.0" x="596.0" y="676" /><text fill="#dd6b20" font-family="monospace" font-size="9px" x="598.0" y="690.8">ARG=0x40000000</text><rect fill="#dd6b20" fill-opacity="0.25" height="20" stroke="#dd6b20" stroke-width="0.5" width="96.0" x="692.0" y="676" /><text fill="#dd6b20" font-family="monospace" font-size="9px" x="694.0" y="690.8">ARG=0x40000000</text><rect fill="#dd6b20" fill-opacity="0.25" height="20" stroke="#dd6b20" stroke-width="0.5" width="96.0" x="788.0" y="676" /><text fill="#dd6b20" font-family="monospace" font-size="9px" x="790.0" y="690.8">ARG=0x40000000</text><rect fill="#dd6b20" fill-opacity="0.25" height="20" stroke="#dd6b20" stroke-width="0.5" width="96.0" x="884.0" y="676" /><text fill="#dd6b20" font-family="monospace" font-size="9px" x="886.0" y="690.8">ARG=0x40000000</text><rect fill="#dd6b20" fill-opacity="0.25" height="20" stroke="#dd6b20" stroke-width="0.5" width="96.0" x="980.0" y="676" /><text fill="#dd6b20" font-family="monospace" font-size="9px" x="982.0" y="690.8">CRC7</text><rect fill="#dd6b20" fill-opacity="0.25" height="20" stroke="#dd6b20" stroke-width="0.5" width="96.0" x="1076.0" y="676" /><text fill="#dd6b20" font-family="monospace" font-size="9px" x="1078.0" y="690.8">NCR</text><rect fill="#dd6b20" fill-opacity="0.25" height="20" stroke="#dd6b20" stroke-width="0.5" width="96.0" x="1172.0" y="676" /><text fill="#dd6b20" font-family="monospace" font-size="9px" x="1174.0" y="690.8">R1=READY</text><rect fill="#dd6b20" fill-opacity="0.25" height="20" stroke="#dd6b20" stroke-width="0.5" width="96.0" x="1274.0" y="676" /><text fill="#dd6b20" font-family="monospace" font-size="9px" x="1276.0" y="690.8">CMD17</text><text fill="#4a5568" font-family="monospace" font-size="10px" x="10" y="717">chunk 4/5 — samples 3067-4111  (306.7-411.2 µs)</text><rect fill="#e2e8f0" height="160" width="96.0" x="110.0" y="722" /><rect fill="#edf2f7" height="160" width="96.0" x="206.0" y="722" /><rect fill="#e2e8f0" height="160" width="96.0" x="302.0" y="722" /><rect fill="#edf2f7" height="160" width="96.0" x="398.0" y="722" /><rect fill="#e2e8f0" height="160" width="96.0" x="494.0" y="722" /><rect fill="#edf2f7" height="160" width="96.0" x="590.0" y="722" /><rect fill="#e2e8f0" height="160" width="96.0" x="686.0" y="722" /><rect fill="#edf2f7" height="160" width="96.0" x="788.0" y="722" /><rect fill="#e2e8f0" height="160" width="96.0" x="884.0" y="722" /><rect fill="#edf2f7" height="160" width="96.0" x="980.0" y="722" /><rect fill="#e2e8f0" height="160" width="96.0" x="1076.0" y="722" /><rect fill="#edf2f7" height="160" width="96.0" x="1172.0" y="722" /><rect fill="#e2e8f0" height="160" width="96.0" x="1268.0" y="722" /><text font-family="monospace" font-size="12px" x="10" y="744.0">spi0.sclk</text><polyline fill="none" points="110.0,754.0 116.0,754.0 116.0,730.0 122.0,730.0 122.0,754.0 128.0,754.0 128.0,730.0 134.0,730.0 134.0,754.0 140.0,754.0 140.0,730.0 146.0,730.0 146.0,754.0 152.0,754.0 152.0,730.0 158.0,730.0 158.0,754.0 164.0,754.0 164.0,730.0 170.0,730.0 170.0,754.0 176.0,754.0 176.0,730.0 182.0,730.0 182.0,754.0 188.0,754.0 188.0,730.0 194.0,730.0 194.0,754.0 200.0,754.0 200.0,730.0 206.0,730.0 206.0,754.0 212.0,754.0 212.0,730.0 218.0,730.0 218.0,754.0 224.0,754.0 224.0,730.0 230.0,730.0 230.0,754.0 236.0,754.0 236.0,730.0 242.0,730.0 242.0,754.0 248.0,754.0 248.0,730.0 254.0,730.0 254.0,754.0 260.0,754.0 260.0,730.0 266.0,730.0 266.0,754.0 272.0,754.0 272.0,730.0 278.0,730.0 278.0,754.0 284.0,754.0 284.0,730.0 290.0,730.0 290.0,754.0 296.0,754.0 296.0,730.0 302.0,730.0 302.0,754.0 308.0,754.0 308.0,730.0 314.0,730.0 314.0,754.0 320.0,754.0 320.0,730.0 326.0,730.0 326.0,754.0 332.0,754.0 332.0,730.0 338.0,730.0 338.0,754.0 344.0,754.0 344.0,730.0 350.0,730.0 350.0,754.0 356.0,754.0 356.0,730.0 362.0,730.0 362.0,754.0 368.0,754.0 368.0,730.0 374.0,730.0 374.0,754.0 380.0,754.0 380.0,730.0 386.0,730.0 386.0,754.0 392.0,754.0 392.0,730.0 398.0,730.0 398.0,754.0 404.0,754.0 404.0,730.0 410.0,730.0 410.0,754.0 416.0,754.0 416.0,730.0 422.0,730.0 422.0,754.0 428.0,754.0 428.0,730.0 434.0,730.0 434.0,754.0 440.0,754.0 440.0,730.0 446.0,730.0 446.0,754.0 452.0,754.0 452.0,730.0 458.0,730.0 458.0,754.0 464.0,754.0 464.0,730.0 470.0,730.0 470.0,754.0 476.0,754.0 476.0,730.0 482.0,730.0 482.0,754.0 488.0,754.0 488.0,730.0 494.0,730.0 494.0,754.0 500.0,754.0 500.0,730.0 506.0,730.0 506.0,754.0 512.0,754.0 512.0,730.0 518.0,730.0 518.0,754.0 524.0,754.0 524.0,730.0 530.0,730.0 530.0,754.0 536.0,754.0 536.0,730.0 542.0,730.0 542.0,754.0 548.0,754.0 548.0,730.0 554.0,730.0 554.0,754.0 560.0,754.0 560.0,730.0 566.0,730.0 566.0,754.0 572.0,754.0 572.0,730.0 578.0,730.0 578.0,754.0 584.0,754.0 584.0,730.0 590.0,730.0 590.0,754.0 596.0,754.0 596.0,730.0 602.0,730.0 602.0,754.0 608.0,754.0 608.0,730.0 614.0,730.0 614.0,754.0 620.0,754.0 620.0,730.0 626.0,730.0 626.0,754.0 632.0,754.0 632.0,730.0 638.0,730.0 638.0,754.0 644.0,754.0 644.0,730.0 650.0,730.0 650.0,754.0 656.0,754.0 656.0,730.0 662.0,730.0 662.0,754.0 668.0,754.0 668.0,730.0 674.0,730.0 674.0,754.0 680.0,754.0 680.0,730.0 686.0,730.0 686.0,754.0 692.0,754.0 692.0,730.0 698.0,730.0 698.0,754.0 704.0,754.0 704.0,730.0 710.0,730.0 710.0,754.0 716.0,754.0 716.0,730.0 722.0,730.0 722.0,754.0 728.0,754.0 728.0,730.0 734.0,730.0 734.0,754.0 740.0,754.0 740.0,730.0 746.0,730.0 746.0,754.0 752.0,754.0 752.0,730.0 758.0,730.0 758.0,754.0 764.0,754.0 764.0,730.0 770.0,730.0 770.0,754.0 776.0,754.0 776.0,730.0 782.0,730.0 782.0,754.0 794.0,754.0 794.0,730.0 800.0,730.0 800.0,754.0 806.0,754.0 806.0,730.0 812.0,730.0 812.0,754.0 818.0,754.0 818.0,730.0 824.0,730.0 824.0,754.0 830.0,754.0 830.0,730.0 836.0,730.0 836.0,754.0 842.0,754.0 842.0,730.0 848.0,730.0 848.0,754.0 854.0,754.0 854.0,730.0 860.0,730.0 860.0,754.0 866.0,754.0 866.0,730.0 872.0,730.0 872.0,754.0 878.0,754.0 878.0,730.0 884.0,730.0 884.0,754.0 890.0,754.0 890.0,730.0 896.0,730.0 896.0,754.0 902.0,754.0 902.0,730.0 908.0,730.0 908.0,754.0 914.0,754.0 914.0,730.0 920.0,730.0 920.0,754.0 926.0,754.0 926.0,730.0 932.0,730.0 932.0,754.0 938.0,754.0 938.0,730.0 944.0,730.0 944.0,754.0 950.0,754.0 950.0,730.0 956.0,730.0 956.0,754.0 962.0,754.0 962.0,730.0 968.0,730.0 968.0,754.0 974.0,754.0 974.0,730.0 980.0,730.0 980.0,754.0 986.0,754.0 986.0,730.0 992.0,730.0 992.0,754.0 998.0,754.0 998.0,730.0 1004.0,730.0 1004.0,754.0 1010.0,754.0 1010.0,730.0 1016.0,730.0 1016.0,754.0 1022.0,754.0 1022.0,730.0 1028.0,730.0 1028.0,754.0 1034.0,754.0 1034.0,730.0 1040.0,730.0 1040.0,754.0 1046.0,754.0 1046.0,730.0 1052.0,730.0 1052.0,754.0 1058.0,754.0 1058.0,730.0 1064.0,730.0 1064.0,754.0 1070.0,754.0 1070.0,730.0 1076.0,730.0 1076.0,754.0 1082.0,754.0 1082.0,730.0 1088.0,730.0 1088.0,754.0 1094.0,754.0 1094.0,730.0 1100.0,730.0 1100.0,754.0 1106.0,754.0 1106.0,730.0 1112.0,730.0 1112.0,754.0 1118.0,754.0 1118.0,730.0 1124.0,730.0 1124.0,754.0 1130.0,754.0 1130.0,730.0 1136.0,730.0 1136.0,754.0 1142.0,754.0 1142.0,730.0 1148.0,730.0 1148.0,754.0 1154.0,754.0 1154.0,730.0 1160.0,730.0 1160.0,754.0 1166.0,754.0 1166.0,730.0 1172.0,730.0 1172.0,754.0 1178.0,754.0 1178.0,730.0 1184.0,730.0 1184.0,754.0 1190.0,754.0 1190.0,730.0 1196.0,730.0 1196.0,754.0 1202.0,754.0 1202.0,730.0 1208.0,730.0 1208.0,754.0 1214.0,754.0 1214.0,730.0 1220.0,730.0 1220.0,754.0 1226.0,754.0 1226.0,730.0 1232.0,730.0 1232.0,754.0 1238.0,754.0 1238.0,730.0 1244.0,730.0 1244.0,754.0 1250.0,754.0 1250.0,730.0 1256.0,730.0 1256.0,754.0 1262.0,754.0 1262.0,730.0 1268.0,730.0 1268.0,754.0 1274.0,754.0 1274.0,730.0 1280.0,730.0 1280.0,754.0 1286.0,754.0 1286.0,730.0 1292.0,730.0 1292.0,754.0 1298.0,754.0 1298.0,730.0 1304.0,730.0 1304.0,754.0 1310.0,754.0 1310.0,730.0 1316.0,730.0 1316.0,754.0 1322.0,754.0 1322.0,730.0 1328.0,730.0 1328.0,754.0 1334.0,754.0 1334.0,730.0 1340.0,730.0 1340.0,754.0 1346.0,754.0 1346.0,730.0 1352.0,730.0 1352.0,754.0 1358.0,754.0 1358.0,730.0 1364.0,730.0 1364.0,754.0 1370.0,754.0 1370.0,730.0 1376.0,730.0 1376.0,754.0 1382.0,754.0 1382.0,730.0 1388.0,730.0 1388.0,754.0 1394.0,754.0 1394.0,730.0 1400.0,730.0 1400.0,754.0 1406.0,754.0 1406.0,730.0 1412.0,730.0 1412.0,754.0 1418.0,754.0 1418.0,730.0 1424.0,730.0 1424.0,754.0 1430.0,754.0 1430.0,730.0 1436.0,730.0 1436.0,754.0 1442.0,754.0 1442.0,730.0 1448.0,730.0 1448.0,754.0 1454.0,754.0 1454.0,730.0 1460.0,730.0 1460.0,754.0 1364.0,754.0" stroke="#1a202c" stroke-width="1.5" /><text font-family="monospace" font-size="12px" x="10" y="784.0">spi0.mosi</text><polyline fill="none" points="110.0,794.0 110.0,794.0 326.0,794.0 326.0,770.0 338.0,770.0 338.0,794.0 494.0,794.0 494.0,770.0 506.0,770.0 506.0,794.0 518.0,794.0 518.0,770.0 542.0,770.0 542.0,794.0 578.0,794.0 578.0,770.0 686.0,770.0 686.0,794.0 782.0,794.0 782.0,794.0" stroke="#2b6cb0" stroke-width="1.5" /><polyline fill="none" points="782.0,794.0 782.0,794.0 788.0,794.0 788.0,794.0" stroke="#1a202c" stroke-width="1.5" /><polyline fill="none" points="788.0,794.0 788.0,770.0 1364.0,770.0" stroke="#2b6cb0" stroke-width="1.5" /><text font-family="monospace" font-size="12px" x="10" y="824.0">spi0.miso</text><polyline fill="none" points="110.0,834.0 110.0,834.0 590.0,834.0 590.0,810.0 686.0,810.0 686.0,834.0 782.0,834.0 782.0,834.0" stroke="#38a169" stroke-width="1.5" /><polyline fill="none" points="782.0,834.0 782.0,834.0 788.0,834.0 788.0,834.0" stroke="#1a202c" stroke-width="1.5" /><polyline fill="none" points="788.0,834.0 788.0,810.0 872.0,810.0 872.0,834.0 884.0,834.0 884.0,810.0 908.0,810.0 908.0,834.0 920.0,834.0 920.0,810.0 968.0,810.0 968.0,834.0 980.0,834.0 980.0,810.0 992.0,810.0 992.0,834.0 1004.0,834.0 1004.0,810.0 1016.0,810.0 1016.0,834.0 1028.0,834.0 1028.0,810.0 1052.0,810.0 1052.0,834.0 1064.0,834.0 1064.0,810.0 1088.0,810.0 1088.0,834.0 1100.0,834.0 1100.0,810.0 1160.0,810.0 1160.0,834.0 1172.0,834.0 1172.0,810.0 1208.0,810.0 1208.0,834.0 1220.0,834.0 1220.0,810.0 1268.0,810.0 1268.0,834.0 1364.0,834.0" stroke="#38a169" stroke-width="1.5" /><text font-family="monospace" font-size="12px" x="10" y="864.0">spi0.cs</text><polyline fill="none" points="110.0,874.0 782.0,874.0 782.0,850.0 788.0,850.0 788.0,874.0 1460.0,874.0 1460.0,850.0 1364.0,850.0" stroke="#1a202c" stroke-width="1.5" /><text fill="#6b46c1" font-family="monospace" font-size="10px" x="10" y="897.6">bitorder</text><rect fill="#6b46c1" fill-opacity="0.25" height="20" stroke="#6b46c1" stroke-width="0.5" width="672.0" x="110.0" y="884" /><rect fill="#6b46c1" fill-opacity="0.25" height="20" stroke="#6b46c1" stroke-width="0.5" width="576.0" x="788.0" y="884" /><text fill="#6b46c1" font-family="monospace" font-size="9px" x="790.0" y="898.8">msb</text><text fill="#dd6b20" font-family="monospace" font-size="10px" x="10" y="921.6">field</text><rect fill="#dd6b20" fill-opacity="0.25" height="20" stroke="#dd6b20" stroke-width="0.5" width="96.0" x="110.0" y="908" /><text fill="#dd6b20" font-family="monospace" font-size="9px" x="112.0" y="922.8">ARG=0x00002000</text><rect fill="#dd6b20" fill-opacity="0.25" height="20" stroke="#dd6b20" stroke-width="0.5" width="96.0" x="206.0" y="908" /><text fill="#dd6b20" font-family="monospace" font-size="9px" x="208.0" y="922.8">ARG=0x00002000</text><rect fill="#dd6b20" fill-opacity="0.25" height="20" stroke="#dd6b20" stroke-width="0.5" width="96.0" x="302.0" y="908" /><text fill="#dd6b20" font-family="monospace" font-size="9px" x="304.0" y="922.8">ARG=0x00002000</text><rect fill="#dd6b20" fill-opacity="0.25" height="20" stroke="#dd6b20" stroke-width="0.5" width="96.0" x="398.0" y="908" /><text fill="#dd6b20" font-family="monospace" font-size="9px" x="400.0" y="922.8">ARG=0x00002000</text><rect fill="#dd6b20" fill-opacity="0.25" height="20" stroke="#dd6b20" stroke-width="0.5" width="96.0" x="494.0" y="908" /><text fill="#dd6b20" font-family="monospace" font-size="9px" x="496.0" y="922.8">CRC7</text><rect fill="#dd6b20" fill-opacity="0.25" height="20" stroke="#dd6b20" stroke-width="0.5" width="96.0" x="590.0" y="908" /><text fill="#dd6b20" font-family="monospace" font-size="9px" x="592.0" y="922.8">NCR</text><rect fill="#dd6b20" fill-opacity="0.25" height="20" stroke="#dd6b20" stroke-width="0.5" width="96.0" x="686.0" y="908" /><text fill="#dd6b20" font-family="monospace" font-size="9px" x="688.0" y="922.8">R1=OK</text><rect fill="#dd6b20" fill-opacity="0.25" height="20" stroke="#dd6b20" stroke-width="0.5" width="96.0" x="788.0" y="908" /><text fill="#dd6b20" font-family="monospace" font-size="9px" x="790.0" y="922.8">TOKEN=0xFE</text><rect fill="#dd6b20" fill-opacity="0.25" height="20" stroke="#dd6b20" stroke-width="0.5" width="96.0" x="884.0" y="908" /><text fill="#dd6b20" font-family="monospace" font-size="9px" x="886.0" y="922.8">0xDE</text><rect fill="#dd6b20" fill-opacity="0.25" height="20" stroke="#dd6b20" stroke-width="0.5" width="96.0" x="980.0" y="908" /><text fill="#dd6b20" font-family="monospace" font-size="9px" x="982.0" y="922.8">0xAD</text><rect fill="#dd6b20" fill-opacity="0.25" height="20" stroke="#dd6b20" stroke-width="0.5" width="96.0" x="1076.0" y="908" /><text fill="#dd6b20" font-family="monospace" font-size="9px" x="1078.0" y="922.8">0xBE</text><rect fill="#dd6b20" fill-opacity="0.25" height="20" stroke="#dd6b20" stroke-width="0.5" width="96.0" x="1172.0" y="908" /><text fill="#dd6b20" font-family="monospace" font-size="9px" x="1174.0" y="922.8">0xEF</text><rect fill="#dd6b20" fill-opacity="0.25" height="20" stroke="#dd6b20" stroke-width="0.5" width="96.0" x="1268.0" y="908" /><text fill="#dd6b20" font-family="monospace" font-size="9px" x="1270.0" y="922.8">CRC16</text><text fill="#4a5568" font-family="monospace" font-size="10px" x="10" y="949">chunk 5/5 — samples 4112-4273  (411.2-427.4 µs)</text><rect fill="#edf2f7" height="160" width="96.0" x="110.0" y="954" /><text font-family="monospace" font-size="12px" x="10" y="976.0">spi0.sclk</text><polyline fill="none" points="110.0,986.0 116.0,986.0 116.0,962.0 122.0,962.0 122.0,986.0 128.0,986.0 128.0,962.0 134.0,962.0 134.0,986.0 140.0,986.0 140.0,962.0 146.0,962.0 146.0,986.0 152.0,986.0 152.0,962.0 158.0,962.0 158.0,986.0 164.0,986.0 164.0,962.0 170.0,962.0 170.0,986.0 176.0,986.0 176.0,962.0 182.0,962.0 182.0,986.0 188.0,986.0 188.0,962.0 194.0,962.0 194.0,986.0 200.0,986.0 200.0,962.0 206.0,962.0 206.0,986.0 304.4,986.0" stroke="#1a202c" stroke-width="1.5" /><text font-family="monospace" font-size="12px" x="10" y="1016.0">spi0.mosi</text><polyline fill="none" points="110.0,1002.0 110.0,1002.0 206.0,1002.0 206.0,1002.0" stroke="#2b6cb0" stroke-width="1.5" /><polyline fill="none" points="206.0,1002.0 206.0,1002.0 304.4,1002.0" stroke="#1a202c" stroke-width="1.5" /><text font-family="monospace" font-size="12px" x="10" y="1056.0">spi0.miso</text><polyline fill="none" points="110.0,1066.0 110.0,1066.0 206.0,1066.0 206.0,1066.0" stroke="#38a169" stroke-width="1.5" /><polyline fill="none" points="206.0,1066.0 206.0,1066.0 304.4,1066.0" stroke="#1a202c" stroke-width="1.5" /><text font-family="monospace" font-size="12px" x="10" y="1096.0">spi0.cs</text><polyline fill="none" points="110.0,1106.0 206.0,1106.0 206.0,1082.0 304.4,1082.0" stroke="#1a202c" stroke-width="1.5" /><text fill="#6b46c1" font-family="monospace" font-size="10px" x="10" y="1129.6">bitorder</text><rect fill="#6b46c1" fill-opacity="0.25" height="20" stroke="#6b46c1" stroke-width="0.5" width="96.0" x="110.0" y="1116" /><text fill="#dd6b20" font-family="monospace" font-size="10px" x="10" y="1153.6">field</text><rect fill="#dd6b20" fill-opacity="0.25" height="20" stroke="#dd6b20" stroke-width="0.5" width="96.0" x="110.0" y="1140" /><text fill="#dd6b20" font-family="monospace" font-size="9px" x="112.0" y="1154.8">CRC16</text><rect fill="#2b6cb0" height="10" width="10" x="10" y="1166" /><text font-family="monospace" font-size="10px" x="24" y="1175">master</text><rect fill="#38a169" height="10" width="10" x="76" y="1166" /><text font-family="monospace" font-size="10px" x="90" y="1175">slave</text></svg>