<?xml version="1.0" encoding="utf-8" ?>
<svg baseProfile="full" height="248" version="1.1" width="1400" xmlns="http://www.w3.org/2000/svg" xmlns:ev="http://www.w3.org/2001/xml-events" xmlns:xlink="http://www.w3.org/1999/xlink"><defs /><rect fill="white" height="248" width="1400" x="0" y="0" /><rect fill="#edf2f7" height="160" width="395.92156862745105" x="159.49019607843138" y="10" /><rect fill="#e2e8f0" height="160" width="395.92156862745094" x="555.4117647058824" y="10" /><rect fill="#edf2f7" height="160" width="395.92156862745094" x="951.3333333333334" y="10" /><text font-family="monospace" font-size="12px" x="10" y="32.0">spi0.sclk</text><polyline fill="none" points="110.0,42.0 134.7450980392157,42.0 134.7450980392157,42.0 184.23529411764707,42.0 184.23529411764707,18.0 208.98039215686276,18.0 208.98039215686276,42.0 233.72549019607845,42.0 233.72549019607845,18.0 258.47058823529414,18.0 258.47058823529414,42.0 283.21568627450984,42.0 283.21568627450984,18.0 307.9607843137255,18.0 307.9607843137255,42.0 332.7058823529412,42.0 332.7058823529412,18.0 357.4509803921569,18.0 357.4509803921569,42.0 382.19607843137254,42.0 382.19607843137254,18.0 406.94117647058823,18.0 406.94117647058823,42.0 431.6862745098039,42.0 431.6862745098039,18.0 456.4313725490196,18.0 456.4313725490196,42.0 481.1764705882353,42.0 481.1764705882353,18.0 505.921568627451,18.0 505.921568627451,42.0 530.6666666666667,42.0 530.6666666666667,18.0 555.4117647058824,18.0 555.4117647058824,42.0 580.1568627450981,42.0 580.1568627450981,18.0 604.9019607843138,18.0 604.9019607843138,42.0 629.6470588235294,42.0 629.6470588235294,18.0 654.3921568627451,18.0 654.3921568627451,42.0 679.1372549019608,42.0 679.1372549019608,18.0 703.8823529411765,18.0 703.8823529411765,42.0 728.6274509803922,42.0 728.6274509803922,18.0 753.3725490196078,18.0 753.3725490196078,42.0 778.1176470588235,42.0 778.1176470588235,18.0 802.8627450980392,18.0 802.8627450980392,42.0 827.6078431372549,42.0 827.6078431372549,18.0 852.3529411764706,18.0 852.3529411764706,42.0 877.0980392156863,42.0 877.0980392156863,18.0 901.843137254902,18.0 901.843137254902,42.0 926.5882352941177,42.0 926.5882352941177,18.0 951.3333333333334,18.0 951.3333333333334,42.0 976.0784313725491,42.0 976.0784313725491,18.0 1000.8235294117648,18.0 1000.8235294117648,42.0 1025.5686274509803,42.0 1025.5686274509803,18.0 1050.3137254901962,18.0 1050.3137254901962,42.0 1075.0588235294117,42.0 1075.0588235294117,18.0 1099.8039215686276,18.0 1099.8039215686276,42.0 1124.549019607843,42.0 1124.549019607843,18.0 1149.2941176470588,18.0 1149.2941176470588,42.0 1174.0392156862745,42.0 1174.0392156862745,18.0 1198.7843137254902,18.0 1198.7843137254902,42.0 1223.5294117647059,42.0 1223.5294117647059,18.0 1248.2745098039215,18.0 1248.2745098039215,42.0 1273.0196078431372,42.0 1273.0196078431372,18.0 1297.764705882353,18.0 1297.764705882353,42.0 1322.5098039215686,42.0 1322.5098039215686,18.0 1347.2549019607843,18.0 1347.2549019607843,42.0 1372.0,42.0" stroke="#1a202c" stroke-width="1.5" /><text font-family="monospace" font-size="12px" x="10" y="72.0">spi0.mosi</text><polyline fill="none" points="110.0,58.0 110.0,58.0 134.7450980392157,58.0 134.7450980392157,58.0 159.49019607843138,58.0 159.49019607843138,58.0" stroke="#1a202c" stroke-width="1.5" /><polyline fill="none" points="159.49019607843138,58.0 159.49019607843138,58.0 208.98039215686276,58.0 208.98039215686276,82.0 307.9607843137255,82.0 307.9607843137255,58.0 406.94117647058823,58.0 406.94117647058823,82.0 456.4313725490196,82.0 456.4313725490196,58.0 555.4117647058824,58.0 555.4117647058824,82.0 901.843137254902,82.0 901.843137254902,58.0 951.3333333333334,58.0 951.3333333333334,82.0 1248.2745098039215,82.0 1248.2745098039215,58.0 1297.764705882353,58.0 1297.764705882353,82.0 1347.2549019607843,82.0 1347.2549019607843,82.0" stroke="#2b6cb0" stroke-width="1.5" /><polyline fill="none" points="1347.2549019607843,82.0 1347.2549019607843,82.0 1372.0,82.0" stroke="#1a202c" stroke-width="1.5" /><text font-family="monospace" font-size="12px" x="10" y="112.0">spi0.miso</text><polyline fill="none" points="110.0,98.0 110.0,98.0 134.7450980392157,98.0 134.7450980392157,98.0 159.49019607843138,98.0 159.49019607843138,98.0" stroke="#1a202c" stroke-width="1.5" /><polyline fill="none" points="159.49019607843138,98.0 159.49019607843138,122.0 951.3333333333334,122.0 951.3333333333334,98.0 1050.3137254901962,98.0 1050.3137254901962,122.0 1149.2941176470588,122.0 1149.2941176470588,98.0 1198.7843137254902,98.0 1198.7843137254902,122.0 1347.2549019607843,122.0 1347.2549019607843,122.0" stroke="#38a169" stroke-width="1.5" /><polyline fill="none" points="1347.2549019607843,122.0 1347.2549019607843,122.0 1372.0,122.0" stroke="#1a202c" stroke-width="1.5" /><text font-family="monospace" font-size="12px" x="10" y="152.0">spi0.cs</text><polyline fill="none" points="110.0,138.0 134.7450980392157,138.0 134.7450980392157,138.0 159.49019607843138,138.0 159.49019607843138,162.0 1347.2549019607843,162.0 1347.2549019607843,138.0 1372.0,138.0" stroke="#1a202c" stroke-width="1.5" /><text fill="#6b46c1" font-family="monospace" font-size="10px" x="10" y="185.6">bitorder</text><rect fill="#6b46c1" fill-opacity="0.25" height="20" stroke="#6b46c1" stroke-width="0.5" width="1187.764705882353" x="159.49019607843138" y="172" /><text fill="#6b46c1" font-family="monospace" font-size="9px" x="161.49019607843138" y="186.8">msb</text><text fill="#dd6b20" font-family="monospace" font-size="10px" x="10" y="209.6">field</text><rect fill="#dd6b20" fill-opacity="0.25" height="20" stroke="#dd6b20" stroke-width="0.5" width="395.92156862745105" x="159.49019607843138" y="196" /><text fill="#dd6b20" font-family="monospace" font-size="9px" x="161.49019607843138" y="210.8">MOSI=0x9B MISO=0x00</text><rect fill="#dd6b20" fill-opacity="0.25" height="20" stroke="#dd6b20" stroke-width="0.5" width="395.92156862745094" x="555.4117647058824" y="196" /><text fill="#dd6b20" font-family="monospace" font-size="9px" x="557.4117647058824" y="210.8">MOSI=0x01 MISO=0x00</text><rect fill="#dd6b20" fill-opacity="0.25" height="20" stroke="#dd6b20" stroke-width="0.5" width="395.92156862745094" x="951.3333333333334" y="196" /><text fill="#dd6b20" font-family="monospace" font-size="9px" x="953.3333333333334" y="210.8">MOSI=0x02 MISO=0xC8</text><rect fill="#2b6cb0" height="10" width="10" x="10" y="222" /><text font-family="monospace" font-size="10px" x="24" y="231">master</text><rect fill="#38a169" height="10" width="10" x="76" y="222" /><text font-family="monospace" font-size="10px" x="90" y="231">slave</text></svg>