<?xml version="1.0" encoding="utf-8" ?>
<svg baseProfile="full" height="944" version="1.1" width="1400" xmlns="http://www.w3.org/2000/svg" xmlns:ev="http://www.w3.org/2001/xml-events" xmlns:xlink="http://www.w3.org/1999/xlink"><defs /><rect fill="white" height="944" width="1400" x="0" y="0" /><text fill="#4a5568" font-family="monospace" font-size="10px" x="10" y="21">chunk 1/6 — samples 0-9050  (0.0-9051.0 µs)</text><text font-family="monospace" font-size="12px" x="10" y="48.0">wg0.d0</text><polyline fill="none" points="110.0,34.0 110.0,34.0 230.12,34.0 230.12,34.0 236.12,34.0 236.12,34.0" stroke="#1a202c" stroke-width="1.5" /><polyline fill="none" points="236.12,34.0 236.12,34.0 470.12,34.0 470.12,34.0" stroke="#2b6cb0" stroke-width="1.5" /><polyline fill="none" points="470.12,34.0 470.12,58.0 476.12,58.0 476.12,58.0" stroke="#38a169" stroke-width="1.5" /><polyline fill="none" points="476.12,58.0 476.12,34.0 710.12,34.0 710.12,34.0" stroke="#2b6cb0" stroke-width="1.5" /><polyline fill="none" points="710.12,34.0 710.12,58.0 716.12,58.0 716.12,58.0" stroke="#38a169" stroke-width="1.5" /><polyline fill="none" points="716.12,58.0 716.12,34.0 950.12,34.0 950.12,34.0" stroke="#2b6cb0" stroke-width="1.5" /><polyline fill="none" points="950.12,34.0 950.12,58.0 956.12,58.0 956.12,58.0" stroke="#38a169" stroke-width="1.5" /><polyline fill="none" points="956.12,58.0 956.12,34.0 1190.12,34.0 1190.12,34.0" stroke="#2b6cb0" stroke-width="1.5" /><polyline fill="none" points="1190.12,34.0 1190.12,58.0 1196.12,58.0" stroke="#38a169" stroke-width="1.5" /><text font-family="monospace" font-size="12px" x="10" y="88.0">wg0.d1</text><polyline fill="none" points="110.0,74.0 110.0,74.0 230.12,74.0 230.12,74.0" stroke="#1a202c" stroke-width="1.5" /><polyline fill="none" points="230.12,74.0 230.12,98.0 236.12,98.0 236.12,98.0" stroke="#38a169" stroke-width="1.5" /><polyline fill="none" points="236.12,98.0 236.12,74.0 1196.12,74.0" stroke="#2b6cb0" stroke-width="1.5" /><text fill="#6b46c1" font-family="monospace" font-size="10px" x="10" y="121.6">bitorder</text><rect fill="#6b46c1" fill-opacity="0.25" height="20" stroke="#6b46c1" stroke-width="0.5" width="965.9999999999999" x="230.12" y="108" /><text fill="#6b46c1" font-family="monospace" font-size="9px" x="232.12" y="122.8">msb</text><text fill="#dd6b20" font-family="monospace" font-size="10px" x="10" y="145.6">field</text><rect fill="#dd6b20" fill-opacity="0.25" height="20" stroke="#dd6b20" stroke-width="0.5" width="965.9999999999999" x="230.12" y="132" /><text fill="#dd6b20" font-family="monospace" font-size="9px" x="232.12" y="146.8">FC=12 CARD=34567</text><text fill="#4a5568" font-family="monospace" font-size="10px" x="10" y="173">chunk 2/6 — samples 9051-19050  (9051.0-19051.0 µs)</text><text font-family="monospace" font-size="12px" x="10" y="200.0">wg0.d0</text><polyline fill="none" points="110.0,186.0 110.0,186.0 824.0,186.0 824.0,186.0" stroke="#2b6cb0" stroke-width="1.5" /><polyline fill="none" points="824.0,186.0 824.0,210.0 830.0,210.0 830.0,210.0" stroke="#38a169" stroke-width="1.5" /><polyline fill="none" points="830.0,210.0 830.0,186.0 1064.0,186.0 1064.0,186.0" stroke="#2b6cb0" stroke-width="1.5" /><polyline fill="none" points="1064.0,186.0 1064.0,210.0 1070.0,210.0 1070.0,210.0" stroke="#38a169" stroke-width="1.5" /><polyline fill="none" points="1070.0,210.0 1070.0,186.0 1310.0,186.0" stroke="#2b6cb0" stroke-width="1.5" /><text font-family="monospace" font-size="12px" x="10" y="240.0">wg0.d1</text><polyline fill="none" points="110.0,226.0 110.0,226.0 344.0,226.0 344.0,226.0" stroke="#2b6cb0" stroke-width="1.5" /><polyline fill="none" points="344.0,226.0 344.0,250.0 350.0,250.0 350.0,250.0" stroke="#38a169" stroke-width="1.5" /><polyline fill="none" points="350.0,250.0 350.0,226.0 584.0,226.0 584.0,226.0" stroke="#2b6cb0" stroke-width="1.5" /><polyline fill="none" points="584.0,226.0 584.0,250.0 590.0,250.0 590.0,250.0" stroke="#38a169" stroke-width="1.5" /><polyline fill="none" points="590.0,250.0 590.0,226.0 1304.0,226.0 1304.0,226.0" stroke="#2b6cb0" stroke-width="1.5" /><polyline fill="none" points="1304.0,226.0 1304.0,250.0 1310.0,250.0" stroke="#38a169" stroke-width="1.5" /><text fill="#6b46c1" font-family="monospace" font-size="10px" x="10" y="273.6">bitorder</text><rect fill="#6b46c1" fill-opacity="0.25" height="20" stroke="#6b46c1" stroke-width="0.5" width="1200.0" x="110.0" y="260" /><text fill="#dd6b20" font-family="monospace" font-size="10px" x="10" y="297.6">field</text><rect fill="#dd6b20" fill-opacity="0.25" height="20" stroke="#dd6b20" stroke-width="0.5" width="1200.0" x="110.0" y="284" /><text fill="#4a5568" font-family="monospace" font-size="10px" x="10" y="325">chunk 3/6 — samples 19051-29050  (19051.0-29051.0 µs)</text><text font-family="monospace" font-size="12px" x="10" y="352.0">wg0.d0</text><polyline fill="none" points="110.0,338.0 110.0,338.0 344.0,338.0 344.0,338.0" stroke="#2b6cb0" stroke-width="1.5" /><polyline fill="none" points="344.0,338.0 344.0,362.0 350.0,362.0 350.0,362.0" stroke="#38a169" stroke-width="1.5" /><polyline fill="none" points="350.0,362.0 350.0,338.0 584.0,338.0 584.0,338.0" stroke="#2b6cb0" stroke-width="1.5" /><polyline fill="none" points="584.0,338.0 584.0,362.0 590.0,362.0 590.0,362.0" stroke="#38a169" stroke-width="1.5" /><polyline fill="none" points="590.0,362.0 590.0,338.0 824.0,338.0 824.0,338.0" stroke="#2b6cb0" stroke-width="1.5" /><polyline fill="none" points="824.0,338.0 824.0,362.0 830.0,362.0 830.0,362.0" stroke="#38a169" stroke-width="1.5" /><polyline fill="none" points="830.0,362.0 830.0,338.0 1064.0,338.0 1064.0,338.0" stroke="#2b6cb0" stroke-width="1.5" /><polyline fill="none" points="1064.0,338.0 1064.0,362.0 1070.0,362.0 1070.0,362.0" stroke="#38a169" stroke-width="1.5" /><polyline fill="none" points="1070.0,362.0 1070.0,338.0 1310.0,338.0" stroke="#2b6cb0" stroke-width="1.5" /><text font-family="monospace" font-size="12px" x="10" y="392.0">wg0.d1</text><polyline fill="none" points="110.0,378.0 110.0,378.0 1304.0,378.0 1304.0,378.0" stroke="#2b6cb0" stroke-width="1.5" /><polyline fill="none" points="1304.0,378.0 1304.0,402.0 1310.0,402.0" stroke="#38a169" stroke-width="1.5" /><text fill="#6b46c1" font-family="monospace" font-size="10px" x="10" y="425.6">bitorder</text><rect fill="#6b46c1" fill-opacity="0.25" height="20" stroke="#6b46c1" stroke-width="0.5" width="1200.0" x="110.0" y="412" /><text fill="#dd6b20" font-family="monospace" font-size="10px" x="10" y="449.6">field</text><rect fill="#dd6b20" fill-opacity="0.25" height="20" stroke="#dd6b20" stroke-width="0.5" width="1200.0" x="110.0" y="436" /><text fill="#4a5568" font-family="monospace" font-size="10px" x="10" y="477">chunk 4/6 — samples 29051-39050  (29051.0-39051.0 µs)</text><text font-family="monospace" font-size="12px" x="10" y="504.0">wg0.d0</text><polyline fill="none" points="110.0,490.0 110.0,490.0 824.0,490.0 824.0,490.0" stroke="#2b6cb0" stroke-width="1.5" /><polyline fill="none" points="824.0,490.0 824.0,514.0 830.0,514.0 830.0,514.0" stroke="#38a169" stroke-width="1.5" /><polyline fill="none" points="830.0,514.0 830.0,490.0 1064.0,490.0 1064.0,490.0" stroke="#2b6cb0" stroke-width="1.5" /><polyline fill="none" points="1064.0,490.0 1064.0,514.0 1070.0,514.0 1070.0,514.0" stroke="#38a169" stroke-width="1.5" /><polyline fill="none" points="1070.0,514.0 1070.0,490.0 1304.0,490.0 1304.0,490.0" stroke="#2b6cb0" stroke-width="1.5" /><polyline fill="none" points="1304.0,490.0 1304.0,514.0 1310.0,514.0" stroke="#38a169" stroke-width="1.5" /><text font-family="monospace" font-size="12px" x="10" y="544.0">wg0.d1</text><polyline fill="none" points="110.0,530.0 110.0,530.0 344.0,530.0 344.0,530.0" stroke="#2b6cb0" stroke-width="1.5" /><polyline fill="none" points="344.0,530.0 344.0,554.0 350.0,554.0 350.0,554.0" stroke="#38a169" stroke-width="1.5" /><polyline fill="none" points="350.0,554.0 350.0,530.0 584.0,530.0 584.0,530.0" stroke="#2b6cb0" stroke-width="1.5" /><polyline fill="none" points="584.0,530.0 584.0,554.0 590.0,554.0 590.0,554.0" stroke="#38a169" stroke-width="1.5" /><polyline fill="none" points="590.0,554.0 590.0,530.0 1310.0,530.0" stroke="#2b6cb0" stroke-width="1.5" /><text fill="#6b46c1" font-family="monospace" font-size="10px" x="10" y="577.6">bitorder</text><rect fill="#6b46c1" fill-opacity="0.25" height="20" stroke="#6b46c1" stroke-width="0.5" width="1200.0" x="110.0" y="564" /><text fill="#dd6b20" font-family="monospace" font-size="10px" x="10" y="601.6">field</text><rect fill="#dd6b20" fill-opacity="0.25" height="20" stroke="#dd6b20" stroke-width="0.5" width="1200.0" x="110.0" y="588" /><text fill="#4a5568" font-family="monospace" font-size="10px" x="10" y="629">chunk 5/6 — samples 39051-49050  (39051.0-49051.0 µs)</text><text font-family="monospace" font-size="12px" x="10" y="656.0">wg0.d0</text><polyline fill="none" points="110.0,642.0 110.0,642.0 344.0,642.0 344.0,642.0" stroke="#2b6cb0" stroke-width="1.5" /><polyline fill="none" points="344.0,642.0 344.0,666.0 350.0,666.0 350.0,666.0" stroke="#38a169" stroke-width="1.5" /><polyline fill="none" points="350.0,666.0 350.0,642.0 584.0,642.0 584.0,642.0" stroke="#2b6cb0" stroke-width="1.5" /><polyline fill="none" points="584.0,642.0 584.0,666.0 590.0,666.0 590.0,666.0" stroke="#38a169" stroke-width="1.5" /><polyline fill="none" points="590.0,666.0 590.0,642.0 1310.0,642.0" stroke="#2b6cb0" stroke-width="1.5" /><text font-family="monospace" font-size="12px" x="10" y="696.0">wg0.d1</text><polyline fill="none" points="110.0,682.0 110.0,682.0 824.0,682.0 824.0,682.0" stroke="#2b6cb0" stroke-width="1.5" /><polyline fill="none" points="824.0,682.0 824.0,706.0 830.0,706.0 830.0,706.0" stroke="#38a169" stroke-width="1.5" /><polyline fill="none" points="830.0,706.0 830.0,682.0 1064.0,682.0 1064.0,682.0" stroke="#2b6cb0" stroke-width="1.5" /><polyline fill="none" points="1064.0,682.0 1064.0,706.0 1070.0,706.0 1070.0,706.0" stroke="#38a169" stroke-width="1.5" /><polyline fill="none" points="1070.0,706.0 1070.0,682.0 1304.0,682.0 1304.0,682.0" stroke="#2b6cb0" stroke-width="1.5" /><polyline fill="none" points="1304.0,682.0 1304.0,706.0 1310.0,706.0" stroke="#38a169" stroke-width="1.5" /><text fill="#6b46c1" font-family="monospace" font-size="10px" x="10" y="729.6">bitorder</text><rect fill="#6b46c1" fill-opacity="0.25" height="20" stroke="#6b46c1" stroke-width="0.5" width="1200.0" x="110.0" y="716" /><text fill="#dd6b20" font-family="monospace" font-size="10px" x="10" y="753.6">field</text><rect fill="#dd6b20" fill-opacity="0.25" height="20" stroke="#dd6b20" stroke-width="0.5" width="1200.0" x="110.0" y="740" /><text fill="#4a5568" font-family="monospace" font-size="10px" x="10" y="781">chunk 6/6 — samples 49051-52051  (49051.0-52052.0 µs)</text><text font-family="monospace" font-size="12px" x="10" y="808.0">wg0.d0</text><polyline fill="none" points="110.0,794.0 110.0,794.0 350.0,794.0 350.0,794.0" stroke="#2b6cb0" stroke-width="1.5" /><polyline fill="none" points="350.0,794.0 350.0,794.0 470.12,794.0" stroke="#1a202c" stroke-width="1.5" /><text font-family="monospace" font-size="12px" x="10" y="848.0">wg0.d1</text><polyline fill="none" points="110.0,834.0 110.0,834.0 344.0,834.0 344.0,834.0" stroke="#2b6cb0" stroke-width="1.5" /><polyline fill="none" points="344.0,834.0 344.0,858.0 350.0,858.0 350.0,858.0" stroke="#38a169" stroke-width="1.5" /><polyline fill="none" points="350.0,858.0 350.0,834.0 470.12,834.0" stroke="#1a202c" stroke-width="1.5" /><text fill="#6b46c1" font-family="monospace" font-size="10px" x="10" y="881.6">bitorder</text><rect fill="#6b46c1" fill-opacity="0.25" height="20" stroke="#6b46c1" stroke-width="0.5" width="240.0" x="110.0" y="868" /><text fill="#dd6b20" font-family="monospace" font-size="10px" x="10" y="905.6">field</text><rect fill="#dd6b20" fill-opacity="0.25" height="20" stroke="#dd6b20" stroke-width="0.5" width="240.0" x="110.0" y="892" /><rect fill="#2b6cb0" height="10" width="10" x="10" y="918" /><text font-family="monospace" font-size="10px" x="24" y="927">pullup</text><rect fill="#38a169" height="10" width="10" x="76" y="918" /><text font-family="monospace" font-size="10px" x="90" y="927">reader</text></svg>