<?xml version="1.0" encoding="utf-8" ?>
<svg baseProfile="full" height="84" version="1.1" width="1400" xmlns="http://www.w3.org/2000/svg" xmlns:ev="http://www.w3.org/2001/xml-events" xmlns:xlink="http://www.w3.org/1999/xlink"><defs /><rect fill="white" height="84" width="1400" x="0" y="0" /><text font-family="monospace" font-size="12px" x="10" y="32.0">nec0.ir</text><polyline fill="none" points="110.0,18.0 134.26689887100648,18.0 134.26689887100648,18.0 135.78263271679077,18.0 135.78263271679077,42.0 272.19867883737686,42.0 272.19867883737686,18.0 340.40670189766996,18.0 340.40670189766996,42.0 348.92512611097766,42.0 348.92512611097766,18.0 357.4435503242854,18.0 357.4435503242854,42.0 365.96197453759305,42.0 365.96197453759305,18.0 374.4803987509008,18.0 374.4803987509008,42.0 382.9988229642085,42.0 382.9988229642085,18.0 391.5172471775162,18.0 391.5172471775162,42.0 400.03567139082395,42.0 400.03567139082395,18.0 408.55409560413165,18.0 408.55409560413165,42.0 417.07251981743934,42.0 417.07251981743934,18.0 425.59094403074704,18.0 425.59094403074704,42.0 434.1093682440548,42.0 434.1093682440548,18.0 442.6277924573625,18.0 442.6277924573625,42.0 451.1462166706702,42.0 451.1462166706702,18.0 459.6646408839779,18.0 459.6646408839779,42.0 468.18306509728563,42.0 468.18306509728563,18.0 476.70148931059333,18.0 476.70148931059333,42.0 485.219913523901,42.0 485.219913523901,18.0 510.80550084073985,18.0 510.80550084073985,42.0 519.3239250540475,42.0 519.3239250540475,18.0 544.9095123708864,18.0 544.9095123708864,42.0 553.4279365841941,42.0 553.4279365841941,18.0 579.0135239010328,18.0 579.0135239010328,42.0 587.5319481143406,42.0 587.5319481143406,18.0 613.1175354311795,18.0 613.1175354311795,42.0 621.6359596444872,42.0 621.6359596444872,18.0 647.221546961326,18.0 647.221546961326,42.0 655.7399711746336,42.0 655.7399711746336,18.0 681.3255584914725,18.0 681.3255584914725,42.0 689.8439827047802,42.0 689.8439827047802,18.0 715.429570021619,18.0 715.429570021619,42.0 723.9479942349268,42.0 723.9479942349268,18.0 749.5335815517656,18.0 749.5335815517656,42.0 758.0520057650733,42.0 758.0520057650733,18.0 766.570429978381,18.0 766.570429978381,42.0 775.0888541916887,42.0 775.0888541916887,18.0 783.6072784049964,18.0 783.6072784049964,42.0 792.1257026183041,42.0 792.1257026183041,18.0 817.711289935143,18.0 817.711289935143,42.0 826.2297141484506,42.0 826.2297141484506,18.0 851.8153014652895,18.0 851.8153014652895,42.0 860.3337256785971,42.0 860.3337256785971,18.0 868.8521498919049,18.0 868.8521498919049,42.0 877.3705741052125,42.0 877.3705741052125,18.0 885.8889983185203,18.0 885.8889983185203,42.0 894.407422531828,42.0 894.407422531828,18.0 902.9258467451357,18.0 902.9258467451357,42.0 911.4442709584434,42.0 911.4442709584434,18.0 919.9626951717512,18.0 919.9626951717512,42.0 928.4811193850588,42.0 928.4811193850588,18.0 954.0667067018977,18.0 954.0667067018977,42.0 962.5851309152054,42.0 962.5851309152054,18.0 988.1707182320442,18.0 988.1707182320442,42.0 996.6891424453519,42.0 996.6891424453519,18.0 1005.2075666586596,18.0 1005.2075666586596,42.0 1013.7259908719674,42.0 1013.7259908719674,18.0 1022.244415085275,18.0 1022.244415085275,42.0 1030.7628392985828,42.0 1030.7628392985828,18.0 1056.3484266154214,18.0 1056.3484266154214,42.0 1064.8668508287292,42.0 1064.8668508287292,18.0 1090.452438145568,18.0 1090.452438145568,42.0 1098.9708623588758,42.0 1098.9708623588758,18.0 1124.5564496757147,18.0 1124.5564496757147,42.0 1133.0748738890225,42.0 1133.0748738890225,18.0 1158.660461205861,18.0 1158.660461205861,42.0 1167.1788854191689,42.0 1167.1788854191689,18.0 1168.6946192649532,18.0 1168.6946192649532,42.0 1305.1106653855393,42.0 1305.1106653855393,18.0 1339.214676915686,18.0 1339.214676915686,42.0 1347.7331011289934,42.0 1347.7331011289934,18.0 1372.0,18.0" stroke="#1a202c" stroke-width="1.5" /><text fill="#dd6b20" font-family="monospace" font-size="10px" x="10" y="65.6">field</text><rect fill="#dd6b20" fill-opacity="0.25" height="20" stroke="#dd6b20" stroke-width="0.5" width="1031.3962527023782" x="135.78263271679077" y="52" /><text fill="#dd6b20" font-family="monospace" font-size="9px" x="137.78263271679077" y="66.8">ADDR=0x00 CMD=0x0C</text><rect fill="#dd6b20" fill-opacity="0.25" height="20" stroke="#dd6b20" stroke-width="0.5" width="179.03848186404025" x="1168.6946192649532" y="52" /><text fill="#dd6b20" font-family="monospace" font-size="9px" x="1170.6946192649532" y="66.8">REPEAT</text></svg>